<svg xmlns="http://www.w3.org/2000/svg" xmlns:svg="http://www.w3.org/2000/svg" id="svg71" width="48" height="48" version="1.1"><metadata id="metadata77"/><g id="remove-normal" transform="translate(0,-18)"><rect style="opacity:.001" id="rect2" width="16" height="16" x="0" y="34"/><path style="fill:#313338;fill-opacity:1" id="path4" d="m 15,41.999999 a 6.9999999,6.9999999 0 0 1 -7,6.999999 6.9999999,6.9999999 0 0 1 -7,-6.999999 6.9999999,6.9999999 0 0 1 7,-7 6.9999999,6.9999999 0 0 1 7,7 z"/><rect style="fill:#fff" id="rect6" width="2" height="8" x="41" y="-12" transform="rotate(90)"/></g><g id="add-normal" transform="translate(0,-18)"><rect style="opacity:.001" id="rect9" width="16" height="16" x="0" y="18"/><path style="fill:#313338;fill-opacity:1" id="path11" d="m 15,25.999999 a 6.9999999,6.9999999 0 0 1 -7,6.999999 6.9999999,6.9999999 0 0 1 -7,-6.999999 6.9999999,6.9999999 0 0 1 7,-7 6.9999999,6.9999999 0 0 1 7,7 z"/><rect style="fill:#fff" id="rect13" width="2" height="8" x="7" y="22"/><rect style="fill:#fff" id="rect15" width="2" height="8" x="25" y="-12" transform="rotate(90)"/></g><g id="open-normal" transform="translate(0,-18)"><rect style="opacity:.001" id="rect18" width="16" height="16" x="0" y="50"/><path style="fill:#313338;fill-opacity:1" id="path20" d="m 15,57.999999 a 6.9999999,6.9999999 0 0 1 -7,6.999999 6.9999999,6.9999999 0 0 1 -7,-6.999999 6.9999999,6.9999999 0 0 1 7,-7 6.9999999,6.9999999 0 0 1 7,7 z"/><path style="fill:#fff" id="path22" d="M 8.2810355,36.558561 10.140518,39.779279 12,42.999997 l -3.7189646,0 -3.7189647,0 1.8594824,-3.220718 z" transform="matrix(1.0755682,0,0,0.77622444,-0.90681813,26.622351)"/></g><g id="remove-hover" transform="translate(16,-18)"><rect style="opacity:.001" id="rect25" width="16" height="16" x="0" y="34"/><path style="fill:#4b4e55;fill-opacity:1" id="path27" d="m 15,41.999999 a 6.9999999,6.9999999 0 0 1 -7,6.999999 6.9999999,6.9999999 0 0 1 -7,-6.999999 6.9999999,6.9999999 0 0 1 7,-7 6.9999999,6.9999999 0 0 1 7,7 z"/><rect style="fill:#fff" id="rect29" width="2" height="8" x="41" y="-12" transform="rotate(90)"/></g><g id="add-hover" transform="translate(16,-18)"><rect style="opacity:.001" id="rect32" width="16" height="16" x="0" y="18"/><path style="fill:#4b4e55;fill-opacity:1" id="path34" d="m 15,25.999999 a 6.9999999,6.9999999 0 0 1 -7,6.999999 6.9999999,6.9999999 0 0 1 -7,-6.999999 6.9999999,6.9999999 0 0 1 7,-7 6.9999999,6.9999999 0 0 1 7,7 z"/><rect style="fill:#fff" id="rect36" width="2" height="8" x="7" y="22"/><rect style="fill:#fff" id="rect38" width="2" height="8" x="25" y="-12" transform="rotate(90)"/></g><g id="open-hover" transform="translate(16,-18)"><rect style="opacity:.001" id="rect41" width="16" height="16" x="0" y="50"/><path style="fill:#4b4e55;fill-opacity:1" id="path43" d="m 15,57.999999 a 6.9999999,6.9999999 0 0 1 -7,6.999999 6.9999999,6.9999999 0 0 1 -7,-6.999999 6.9999999,6.9999999 0 0 1 7,-7 6.9999999,6.9999999 0 0 1 7,7 z"/><path style="fill:#fff" id="path45" d="M 8.2810355,36.558561 10.140518,39.779279 12,42.999997 l -3.7189646,0 -3.7189647,0 1.8594824,-3.220718 z" transform="matrix(1.0755682,0,0,0.77622444,-0.90681813,26.622351)"/></g><g id="remove-pressed" transform="translate(32,-18)"><rect style="opacity:.001" id="rect48" width="16" height="16" x="0" y="34"/><path style="fill:#7c60a3;fill-opacity:1" id="path50" d="m 15,41.999999 a 6.9999999,6.9999999 0 0 1 -7,6.999999 6.9999999,6.9999999 0 0 1 -7,-6.999999 6.9999999,6.9999999 0 0 1 7,-7 6.9999999,6.9999999 0 0 1 7,7 z"/><rect style="fill:#fff" id="rect52" width="2" height="8" x="41" y="-12" transform="rotate(90)"/></g><g id="add-pressed" transform="translate(32,-18)"><rect style="opacity:.001" id="rect55" width="16" height="16" x="0" y="18"/><path style="fill:#7c60a3;fill-opacity:1" id="path57" d="m 15,25.999999 a 6.9999999,6.9999999 0 0 1 -7,6.999999 6.9999999,6.9999999 0 0 1 -7,-6.999999 6.9999999,6.9999999 0 0 1 7,-7 6.9999999,6.9999999 0 0 1 7,7 z"/><rect style="fill:#fff" id="rect59" width="2" height="8" x="7" y="22"/><rect style="fill:#fff" id="rect61" width="2" height="8" x="25" y="-12" transform="rotate(90)"/></g><g id="open-pressed" transform="translate(32,-18)"><rect style="opacity:.001" id="rect64" width="16" height="16" x="0" y="50"/><path style="fill:#7c60a3;fill-opacity:1" id="path66" d="m 15,57.999999 a 6.9999999,6.9999999 0 0 1 -7,6.999999 6.9999999,6.9999999 0 0 1 -7,-6.999999 6.9999999,6.9999999 0 0 1 7,-7 6.9999999,6.9999999 0 0 1 7,7 z"/><path style="fill:#fff" id="path68" d="M 8.2810355,36.558561 10.140518,39.779279 12,42.999997 l -3.7189646,0 -3.7189647,0 1.8594824,-3.220718 z" transform="matrix(1.0755682,0,0,0.77622444,-0.90681813,26.622351)"/></g></svg>