<svg xmlns="http://www.w3.org/2000/svg" width="30" height="30" version="1.1" viewBox="0 0 30 30"><defs><style id="current-color-scheme" type="text/css">.ColorScheme-Highlight{color:#3daee9;stop-color:#3daee9}</style></defs><g transform="translate(0 -904.36)"><rect id="hint-tile-center" width="4" height="4" y="904.36" fill="#ff2a2a"/><rect id="hint-bar-size" width="6" height="6" x="6" y="904.36" fill="#ff2a2a"/><g><path id="bar-inactive-bottomright" d="m17 15v3c1.662 0 3-1.338 3-3h-3z" opacity=".35" transform="translate(0 904.36)"/><path id="bar-inactive-right" d="m17 12v2h3v-2h-3z" opacity=".35" transform="translate(0 904.36)"/><path id="bar-inactive-topright" d="m17 8v3h3c0-1.662-1.338-3-3-3z" opacity=".35" transform="translate(0 904.36)"/><path id="bar-inactive-bottomleft" d="m10 15c0 1.662 1.338 3 3 3v-3h-3z" opacity=".35" transform="translate(0 904.36)"/><path id="bar-inactive-left" d="m10 12v2h3v-2h-3z" opacity=".35" transform="translate(0 904.36)"/><path id="bar-inactive-topleft" d="m13 8c-1.662 0-3 1.338-3 3h3v-3z" opacity=".35" transform="translate(0 904.36)"/><path id="bar-inactive-bottom" d="m14 15v3h2v-3h-2z" opacity=".35" transform="translate(0 904.36)"/><path id="bar-inactive-center" d="m16 12h-2v2h2v-2z" opacity=".35" transform="translate(0 904.36)"/><path id="bar-inactive-top" d="m14 8v3h2v-3h-2z" opacity=".35" transform="translate(0 904.36)"/></g><g fill="#8be9fd"><path id="bar-active-bottomright" d="m17 931.36v3c1.662 0 3-1.338 3-3h-3z" class="ColorScheme-Highlight"/><path id="bar-active-right" d="m17 928.36v2h3v-2h-3z" class="ColorScheme-Highlight"/><path id="bar-active-topright" d="m17 924.36v3h3c0-1.662-1.338-3-3-3z" class="ColorScheme-Highlight"/><path id="bar-active-bottomleft" d="m10 931.36c0 1.662 1.338 3 3 3v-3h-3z" class="ColorScheme-Highlight"/><path id="bar-active-left" d="m10 928.36v2h3v-2h-3z" class="ColorScheme-Highlight"/><path id="bar-active-topleft" d="m13 924.36c-1.662 0-3 1.338-3 3h3v-3z" class="ColorScheme-Highlight"/><path id="bar-active-bottom" d="m14 931.36v3h2v-3h-2z" class="ColorScheme-Highlight"/><path id="bar-active-center" d="m16 928.36h-2v2h2v-2z" class="ColorScheme-Highlight"/><path id="bar-active-top" d="m14 924.36v3h2v-3h-2z" class="ColorScheme-Highlight"/></g></g></svg>