<svg xmlns="http://www.w3.org/2000/svg" xmlns:svg="http://www.w3.org/2000/svg" id="svg34" width="136" height="136" version="1.1" viewBox="0 0 35.983 35.983"><metadata id="metadata38"/><defs id="defs3"><style id="current-color-scheme" type="text/css">.ColorScheme-Highlight{color:#3daee9;stop-color:#3daee9}</style></defs><g id="stopped" transform="translate(0.52917,-249.37)"><rect style="fill:none" id="rect5" width="35.983" height="35.983" x="-42.863" y="249.37"/><g style="fill:#da4453" id="g13"><circle style="opacity:.9" id="ellipse7" cx="267.37" cy="38.365" r="1.323" transform="rotate(90)"/><circle style="opacity:.9" id="ellipse9" cx="267.37" cy="11.377" r="1.058" transform="rotate(90)"/><circle style="opacity:.9" id="ellipse11" cx="267.37" cy="24.871" r="2.117" transform="rotate(90)"/></g></g><rect style="fill:#00f" id="hint-rotation-angle" width="3.704" height="3.704" x="0" y="35.99"/><g id="busywidget" transform="translate(-36.24783,-249.37)"><rect style="fill:none" id="rect17" width="35.983" height="35.983" x="36.248" y="249.37"/><path style="color:#3daee9;opacity:1;fill:#8be9fd;fill-opacity:1" id="path19" d="m 207,7 a 61,61 0 0 0 -61,61 61,61 0 0 0 52.5,60.344 61,61 0 0 0 0.0625,0 61,61 0 0 0 0.125,0.0313 61,61 0 0 0 3.4688,0.40625 61,61 0 0 0 1.3438,0.0937 61,61 0 0 0 0.0313,0 c 0.15685,0.009 0.31182,0.0232 0.46875,0.0313 a 61,61 0 0 0 3,0.0937 c 0.15564,-7.2e-4 0.31314,-0.0292 0.46875,-0.0313 a 61,61 0 0 0 4.1875,-0.21875 c 0.20839,-0.0188 0.41684,-0.0101 0.625,-0.0313 12.838,-1.3057 25.212,-7.1178 34.344,-16.25 10.437,-10.437 16.5,-25.115 16.5,-39.875 0,-5.535 -0.85031,-11.053 -2.4688,-16.344 a 55,55 0 0 1 1.3438,11.75 55,55 0 0 1 -55,55 55,55 0 0 1 -55,-55 55,55 0 0 1 2.4688,-16.25 55,55 0 0 1 52.531,-38.75 h 1 c 1.108,0 2,-0.89203 2,-2 v -2 c 0,-1.108 -0.89201,-2 -2,-2 h -1 z" class="ColorScheme-Highlight" transform="matrix(0.26458,0,0,0.26458,-0.52917,249.37)"/></g><g id="22-22-busywidget" transform="translate(0.52917,-249.37)"><rect style="fill:none" id="rect22" width="5.821" height="5.821" x="51.329" y="279.54"/><path style="color:#3daee9;opacity:.72;fill:#f8f8f2" id="path24" d="m 206.91,115 c -5.6828,0 -9.9063,4.7633 -9.9062,10 0,5.1106 3.8604,9.242 8.5312,9.9062 0.007,10e-4 0.0245,-0.001 0.0313,0 0.1869,0.0265 0.37435,0.0459 0.5625,0.0625 0.0726,0.008 0.11478,-0.004 0.1875,0 h 0.0313 c 0.0253,0.002 0.0371,0 0.0625,0 0.16207,0.008 0.3377,0.0313 0.5,0.0313 0.0253,-1.1e-4 0.0373,0 0.0625,0 0.22673,-0.003 0.46154,-0.0123 0.6875,-0.0313 0.0336,-0.003 0.06,0.002 0.0937,0 2.0827,-0.2143 4.081,-1.1902 5.5625,-2.6875 2.2908,-2.8558 2.4243,-5.2927 1.4243,-9.2927 1.2282,5.247 -2.453,9.8717 -7.8619,10.01 -4.2495,0 -7.8746,-3.5882 -7.8746,-7.9987 0.0682,-4.8513 3.9996,-7.9886 7.9371,-8.0065 h 0.15625 c 0.16789,0 0.31534,-0.15426 0.3125,-0.32394 -0.006,-0.3677 -0.0216,-0.97956 -0.0313,-1.3258 -0.005,-0.1814 -0.13273,-0.3438 -0.31245,-0.3438 z" class="ColorScheme-Highlight" transform="matrix(0.26458,0,0,0.26458,-0.52917,249.37)"/></g><g id="16-16-busywidget" transform="translate(0.52917,-249.37)"><rect style="fill:none" id="rect27" width="4.233" height="4.233" x="58.473" y="281.12"/><path style="color:#3daee9;opacity:.72;fill:#f8f8f2" id="path29" d="m 60.576,281.38 c -1.0549,0 -1.8389,0.88423 -1.8389,1.8563 0,0.9487 0.71662,1.7156 1.5837,1.8389 0.0013,1.8e-4 0.0045,-1.8e-4 0.0058,0 0.03469,0.005 0.06949,0.008 0.10442,0.0115 0.01348,9.5e-4 0.02132,-7.1e-4 0.03481,0 h 0.0058 c 0.0047,3.7e-4 0.0068,0 0.0116,0 0.03009,9.5e-4 0.06269,0.006 0.09281,0.006 0.0047,-10e-6 0.007,0 0.01161,0 0.04209,-5.5e-4 0.08568,-0.002 0.12762,-0.006 0.0062,-5.5e-4 0.01115,3.7e-4 0.01739,0 0.38661,-0.0397 0.75757,-0.22096 1.0326,-0.49889 0.42524,-0.53014 0.45003,-0.98249 0.2644,-1.725 0.22799,0.97402 -0.45535,1.8325 -1.4594,1.8582 -0.78884,0 -1.4618,-0.66608 -1.4618,-1.4848 0.01267,-0.90056 0.74245,-1.4829 1.4734,-1.4863 h 0.029 c 0.03117,0 0.05855,-0.0288 0.05801,-0.0601 -0.0011,-0.0683 -0.0039,-0.18183 -0.0058,-0.2461 -9.11e-4,-0.0337 -0.02464,-0.0638 -0.058,-0.0638 z" class="ColorScheme-Highlight"/></g></svg>