<svg xmlns="http://www.w3.org/2000/svg" xmlns:svg="http://www.w3.org/2000/svg" id="svg9" width="50" height="20" version="1.1" viewBox="0 0 50 20"><metadata id="metadata13"/><defs id="defs3"><style id="current-color-scheme" type="text/css"/></defs><g id="checkbox"><path id="path820" d="M 29.625,3 C 28.17075,3 27,4.17075 27,5.625 v 8.75 C 27,15.82925 28.17075,17 29.625,17 h 8.75 C 39.82925,17 41,15.82925 41,14.375 V 5.625 C 41,4.17075 39.82925,3 38.375,3 Z" style="fill:#fff;stroke-width:.77777779"/><path style="fill:#17b58e;stroke-width:.8888889;fill-opacity:1" id="path824" d="M 29 2 C 27.338 2 26 3.338 26 5 L 26 15 C 26 16.662 27.338 18 29 18 L 39 18 C 40.662 18 42 16.662 42 15 L 42 5 C 42 3.338 40.662 2 39 2 L 29 2 z M 38.96875 5.1816406 L 40.222656 6.4453125 L 32.222656 14.445312 L 27.777344 10 L 29.03125 8.7460938 L 32.222656 11.929688 L 38.96875 5.1816406 z"/></g><g id="radiobutton"><path id="222" d="m 10,5 c -2.76,0 -5,2.24 -5,5 0,2.76 2.24,5 5,5 2.76,0 5,-2.24 5,-5 C 15,7.24 12.76,5 10,5 Z M 10,0 C 4.48,0 0,4.48 0,10 0,15.52 4.48,20 10,20 15.52,20 20,15.52 20,10 20,4.48 15.52,0 10,0 Z m 0,18 C 5.58,18 2,14.42 2,10 2,5.58 5.58,2 10,2 c 4.42,0 8,3.58 8,8 0,4.42 -3.58,8 -8,8 z" style="fill:none"/><path id="path822" d="m 10,2 c -4.416,0 -8,3.584 -8,8 0,4.416 3.584,8 8,8 4.416,0 8,-3.584 8,-8 0,-4.416 -3.584,-8 -8,-8 z" style="fill:#fff;stroke-width:.79999995"/><path style="fill:#17b58e;stroke-width:.89999998;fill-opacity:1" id="path833" d="M 10 1 C 5.032 1 1 5.032 1 10 C 1 14.968 5.032 19 10 19 C 14.968 19 19 14.968 19 10 C 19 5.032 14.968 1 10 1 z M 10 3 C 13.864 3 17 6.136 17 10 C 17 13.864 13.864 17 10 17 C 6.136 17 3 13.864 3 10 C 3 6.136 6.136 3 10 3 z"/><path id="path843" d="m 10,6 c -2.208,0 -4,1.792 -4,4 0,2.208 1.792,4 4,4 2.208,0 4,-1.792 4,-4 0,-2.208 -1.792,-4 -4,-4 z" style="fill:#17b58e;stroke-width:.40000001;fill-opacity:1"/></g></svg>