<svg xmlns="http://www.w3.org/2000/svg" id="svg133" width="124" height="52" version="1.1" viewBox="0 0 32.808 13.758"><defs id="defs3"><style id="current-color-scheme" type="text/css">.ColorScheme-Text{color:#31363b;stop-color:#31363b}</style></defs><g id="menu" transform="translate(.52917 -249.37)"><rect id="rect5" width="4.233" height="4.233" x="-.529" y="249.37" fill="none"/><rect id="rect7" width="3.175" height="3.175" x="0" y="249.9" fill="none"/><path id="path9" fill="#dfdfdf" d="m4.5328e-8 250.17v0.52917h3.175v-0.52917zm0 1.0583v0.52917h3.175v-0.52917zm0 1.0583v0.52916h3.175v-0.52916z" class="ColorScheme-Text" color="#31363b"/></g><g id="collapse" transform="translate(.52917 -249.37)"><rect id="rect12" width="4.233" height="4.233" x="23.283" y="254.14" fill="none"/><rect id="rect14" width="3.175" height="3.175" x="23.813" y="254.67" fill="none"/><path id="path16" fill="#dfdfdf" d="m24.606 254.67 0.79375 0.79375 0.79375-0.79375zm-1.0583 1.3229v0.52917h3.7042v-0.52917zm1.8521 1.0583-0.79375 0.79375h1.5875z" class="ColorScheme-Text" color="#31363b"/></g><g id="return-to-source" transform="translate(.52917 -249.63)"><rect id="rect19" width="4.233" height="4.233" x="18.521" y="254.14" fill="none"/><path id="path21" fill="#dfdfdf" d="m74 19c-0.554 0-1 0.44599-1 1v12c0 0.55401 0.446 1 1 1h12c0.554 0 1-0.44599 1-1v-12c0-0.55401-0.446-1-1-1zm4 2h4l-2 2zm-3 4h10v2h-10zm5 4 2 2h-4z" color="#31363b" transform="matrix(.26458 0 0 .26458 -.52917 249.37)"/></g><g id="restore" transform="translate(.52917 -249.37)"><rect id="rect24" width="4.233" height="4.233" x="28.046" y="254.14" fill="none"/><rect id="rect26" width="3.175" height="3.175" x="28.575" y="254.67" fill="none"/><path id="path28" fill="#dfdfdf" d="m29.369 255.46 0.79376-0.79375 0.79374 0.79375zm-1.0583 0.52917v0.52917h3.7042v-0.52917zm1.8521 1.8521-0.79376-0.79375h1.5875z" class="ColorScheme-Text" color="#31363b"/></g><g id="rotate" transform="matrix(.26458 0 0 .26458 -102.39 10.332)"><path id="path36" fill="#dfdfdf" d="m192 435c-3.866 0-7 3.134-7 7s3.134 7 7 7c3.1748 0 5.8615-2.1032 6.7188-5h-2.1562c-0.77427 1.7595-2.5168 3-4.5625 3-2.7614 0-5-2.2386-5-5s2.2386-5 5-5c2.0457 0 3.7882 1.2405 4.5625 3h2.1562c-0.85721-2.8968-3.5439-5-6.7188-5z" transform="translate(241,-473)"/><rect id="rect38" width="16" height="16" x="-441" y="23.016" fill="none" color="#bebebe" transform="scale(-1)"/><path id="path40" fill="#dfdfdf" d="m193 441 6-6v6z" transform="translate(241,-473)"/></g><g id="move" transform="matrix(.26458 0 0 .26458 -49.478 5.3)"><path id="path43" fill="#dfdfdf" d="m253-4.5-3-3.5h2v-2h2v2h2z"/><rect id="rect45" width="16" height="16" x="-20.019" y="245" fill="none" color="#bebebe" enable-background="new" transform="matrix(0,1,1,0,0,0)"/><g id="g53" fill="#dfdfdf"><path id="path47" d="m253-19.5-3 3.5h2v2h2v-2h2z"/><path id="path49" d="m260.5-12-3.5-3v2h-2v2h2l-4e-5 2z"/><path id="path51" d="m245.5-12 3.5-3v2h2v2h-2l-4e-5 2z"/></g></g><g id="size-vertical" transform="matrix(.26458 0 0 .26458 -49.213 -208.49)"><path id="path56" fill="#dfdfdf" d="m252 474-3 5h2v6h-2l3 5 3-5h-2v-6h2z" transform="translate(17,313)"/><rect id="rect58" width="16" height="16" x="-277" y="-803" fill="none" color="#bebebe" transform="scale(-1)"/></g><g id="size-horizontal" transform="matrix(.26458 0 0 .26458 -39.158 -209.02)"><path id="path61" fill="#dfdfdf" d="m229 479-5 3 5 3v-2h6v2l5-3-5-3v2h-6z" transform="translate(17,313)"/><rect id="rect63" width="16" height="16" x="-257" y="-803" fill="none" color="#bebebe" transform="scale(-1)"/></g><g id="size-diagonal-tr2bl" transform="matrix(.26458 0 0 .26458 -77.258 -7.67)"><path id="path66" fill="#dfdfdf" d="m403 31.003c-1 0-1 1-1 1v4h2v-3h3v-2zm8 0v2h3v3h2v-4c0-1-1-1-1-1zm-9 7v4c0 1 1 1 1 1h4v-2h-3v-3zm12 0v3h-3v2h4s1 0 1-1v-4z" color="#bebebe"/><rect id="rect68" width="15.982" height="16" x="401" y="29" fill="none" rx="0" ry="0"/></g><g id="size-diagonal-tl2br" transform="matrix(.26458 0 0 .26458 -105.83 -3.17)"><path id="path71" fill="#dfdfdf" d="m403 31.003c-1 0-1 1-1 1v4h2v-3h3v-2zm8 0v2h3v3h2v-4c0-1-1-1-1-1zm-9 7v4c0 1 1 1 1 1h4v-2h-3v-3zm12 0v3h-3v2h4s1 0 1-1v-4z" color="#bebebe"/><rect id="rect73" width="15.982" height="16" x="401" y="29" fill="none" rx="0" ry="0"/></g><g id="maximize" transform="matrix(.26458 0 0 .26458 -101.07 -2.91)"><path id="path76" fill="#dfdfdf" d="m403 31.003c-1 0-1 1-1 1v4h2v-3h3v-2zm8 0v2h3v3h2v-4c0-1-1-1-1-1zm-9 7v4c0 1 1 1 1 1h4v-2h-3v-3zm12 0v3h-3v2h4s1 0 1-1v-4z" color="#bebebe"/><rect id="rect78" width="15.982" height="16" x="401" y="29" fill="none" rx="0" ry="0"/></g><g id="unmaximize" transform="matrix(.26458 0 0 .26458 -96.042 -3.43)"><path id="path81" fill="#dfdfdf" d="m412 38.003s-1 0-1 1v4h2v-3h3v-2zm-10 0v2h3v3h2v-4s0-1-1-1zm9-7v4s0 1 1 1h4v-2h-3v-3zm-6 0v3h-3v2h4c1 0 1-1 1-1v-4z" color="#bebebe"/><rect id="rect83" width="15.982" height="16" x="401" y="29" fill="none" rx="0" ry="0"/></g><g id="status" transform="matrix(-.26458 0 0 .26458 88.9 35.72)"><rect id="rect86" width="16" height="16" x="265" y="103.03" stroke-width="3" color="#bebebe" enable-background="accumulate" opacity="0" transform="scale(1,-1)"/><path id="path88" fill="#dfdfdf" d="m146 600c-0.554 0-1 0.446-1 1v10c0 0.554 0.446 1 1 1h12c0.554 0 1-0.446 1-1v-10c0-0.554-0.446-1-1-1zm1 8h10v2h-10z" transform="matrix(-1,0,0,1,425,-717)"/></g><g id="delete" transform="matrix(.26458 0 0 .26458 -112.18 -57.68)"><rect id="rect91" width="16" height="16" x="441" y="255.01" fill="none" color="#000" enable-background="new"/><path id="path93" fill="#dfdfdf" d="m429 86v9c5e-5 0.52358 0.47642 0.99995 1 1h9c0.52358-5e-5 0.99995-0.47642 1-1v-9z" color="#000" enable-background="accumulate" transform="translate(14,174)" style="text-decoration-line:none;text-indent:0;text-transform:none"/><path id="path95" fill="#dfdfdf" d="m442 258v1l13-3e-3 -2e-4 -0.99664c0-1-0.9998-1.0034-0.9998-1.0034h-3s0-1-1-1h-3c-1 0-1 1-1 1h-3s-1.0002 3e-3 -1.0002 1.0034z" color="#000" enable-background="accumulate" style="text-decoration-line:none;text-indent:0;text-transform:none"/></g><g id="add" transform="matrix(.26458 0 0 .26458 -6.3501 -214.31)"><rect id="rect98" width="16" height="16" x="61" y="847" fill="none" color="#bebebe"/><path id="path100" fill="#dfdfdf" d="m68 850v4h-4v2h4v4h2v-4h4v-2h-4v-4z" color="#bebebe"/></g><g id="remove" transform="matrix(.26458 0 0 .26458 9.2605 -63.76)"><rect id="rect103" width="16" height="16" x="20" y="276" fill="none" color="#bebebe"/><rect id="rect105" width="10" height="2" x="23" y="283" fill="#dfdfdf" color="#bebebe"/></g><g id="filter" transform="translate(-.26465 -248.84)"><rect id="rect108" width="4.233" height="4.233" x="18.52" y="258.9" fill="none"/><rect id="rect110" width="3.175" height="3.175" x="19.05" y="259.43" fill="none"/><path id="path112" fill="#dfdfdf" d="m76.305 57.787-1 1v1l3 5.2598v2.7422l3 1.9961v2e-3h1v-4.7402l3-5.2598v-1l-1-1h-8zm1 2h3l-1 1v1z" transform="matrix(.26458 0 0 .26458 -.60971 244.14)"/></g><g id="help" transform="translate(-.26466 -248.84)"><rect id="rect115" width="4.233" height="4.233" x="-.53" y="258.9" opacity="0"/><g id="g119" transform="matrix(.26458 0 0 .26458 -118 149.89)"><path id="path117" fill="#dfdfdf" d="m453 427h-2v-2h2zm2.07-7.75-0.9 0.92c-0.72 0.73-1.17 1.33-1.17 2.83h-2v-0.5c0-1.1 0.45-2.1 1.17-2.83l1.24-1.26c0.37-0.36 0.59-0.86 0.59-1.41 0-1.1-0.9-2-2-2s-2 0.9-2 2h-2c0-2.21 1.79-4 4-4s4 1.79 4 4c0 0.88-0.36 1.68-0.93 2.25z"/></g></g><g id="close" transform="matrix(.26458 0 0 .26458 -11.377 -4.76)"><rect id="rect122" width="16" height="16" x="130" y="55.99" opacity=".001"/><g id="g128" transform="matrix(1.4994,0,0,1.5,36.042,-724.98)"><g id="g126" transform="translate(19,-242)"><path id="path124" fill="#dfdfdf" d="m45 764h1c0.01037-1.2e-4 0.02079-4.6e-4 0.03125 0 0.25495 0.0112 0.50987 0.12858 0.6875 0.3125l2.2812 2.2812 2.3125-2.2812c0.26562-0.2305 0.44667-0.3055 0.6875-0.3125h1v1c0 0.28647-0.03434 0.55065-0.25 0.75l-2.2812 2.2812 2.25 2.25c0.18819 0.18817 0.28124 0.45345 0.28125 0.71875v1h-1c-0.2653-1e-5 -0.53059-0.0931-0.71875-0.28125l-2.2812-2.2812-2.2812 2.2812c-0.18816 0.18819-0.45346 0.28125-0.71875 0.28125h-1v-1c-3e-6 -0.26529 0.09306-0.53058 0.28125-0.71875l2.2812-2.25-2.2812-2.2812c-0.21074-0.19463-0.30316-0.46925-0.28125-0.75z"/></g></g></g><g id="configure"><rect id="rect33" width="4.233" height="4.233" x="4.494" y=".27" fill="none" stroke-width=".265" color="#bebebe"/><g id="g1059" fill="#dfdfdf" transform="translate(-.79748 7.4133)"><path id="path1031" d="m5.8081-6.4096a2.1166 2.1166 0 0 0-0.39715 0.68876 0.79374 0.79374 45 0 1 0.40997 0.69356 0.79374 0.79374 45 0 1-0.41065 0.69536 2.1166 2.1166 0 0 0 0.16487 0.36308 2.1166 2.1166 0 0 0 0.23245 0.32406 0.79374 0.79374 45 0 1 0.80707-0.0077 0.79374 0.79374 45 0 1 0.39643 0.70317 2.1166 2.1166 0 0 0 0.79518-0.00143 0.79374 0.79374 45 0 1 0.39569-0.70163 0.79374 0.79374 45 0 1 0.80637 0.00763 2.1166 2.1166 0 0 0 0.39715-0.68876 0.79374 0.79374 45 0 1-0.40997-0.69356 0.79374 0.79374 45 0 1 0.36507-0.66785 0.79374 0.79374 45 0 1 0.045837-0.027061 2.1166 2.1166 0 0 0-0.16513-0.36353 2.1166 2.1166 0 0 0-0.23296-0.32496 0.79374 0.79374 45 0 1-0.80655 0.00859 0.79374 0.79374 45 0 1-0.39643-0.70317 2.1166 2.1166 0 0 0-0.79518 0.00143 0.79374 0.79374 45 0 1-0.39569 0.70163 0.79374 0.79374 45 0 1-0.80637-0.00763zm1.071 0.46589a1.0583 1.0583 0 0 1 1.4457 0.38737 1.0583 1.0583 0 0 1-0.38737 1.4457 1.0583 1.0583 0 0 1-1.4457-0.38737 1.0583 1.0583 0 0 1 0.38737-1.4457z"/><circle id="circle1035" cx="7.408" cy="-5.027" r=".529"/></g></g></svg>