<svg xmlns="http://www.w3.org/2000/svg" xmlns:xlink="http://www.w3.org/1999/xlink" width="128" height="128" version="1"><defs><linearGradient id="a"><stop offset="0" stop-color="#1f34cb"/><stop offset="1" stop-color="#bd93f9"/></linearGradient><linearGradient id="b"><stop offset="0" stop-color="#007584"/><stop offset="1" stop-color="#bd93f9"/></linearGradient><linearGradient id="i" x1="266" x2="266" y1="108" y2="112" gradientUnits="userSpaceOnUse" xlink:href="#b"/><linearGradient id="h" x1="115" x2="115" y1="103" y2="107" gradientUnits="userSpaceOnUse" xlink:href="#a"/><linearGradient id="g" x1="266" x2="266" y1="121" y2="118" gradientUnits="userSpaceOnUse" xlink:href="#b"/><linearGradient id="f" x1="101" x2="101" y1="118" y2="114" gradientUnits="userSpaceOnUse" xlink:href="#a"/><linearGradient id="e" x1="268" x2="268" y1="112" y2="108" gradientUnits="userSpaceOnUse"><stop offset="0" stop-color="#00626d"/><stop offset="1" stop-color="#bd93f9"/></linearGradient><linearGradient id="d" x1="91" x2="95" y1="80.5" y2="80.5" gradientUnits="userSpaceOnUse" xlink:href="#a"/><linearGradient id="c" x1="106" x2="102" y1="67" y2="67" gradientUnits="userSpaceOnUse" xlink:href="#a"/></defs><rect id="hint-stretch-borders" width="5.221" height="5.403" x="-10" fill="#023812" opacity=".65"/><g id="north-center" stroke-width=".913"><path fill="#bd93f9" stroke-width=".913" d="m264 112v5h5v-5z" transform="matrix(1,0,0,1.2,-152,-29.4)"/></g><g id="north-top" fill="url(#i)" transform="translate(-152,-8)"><path fill="url(#h)" d="m112 103v4h5v-4z" transform="translate(152,5)"/></g><g id="north-bottom" stroke-width=".817"><path fill="#bd93f9" stroke-width=".817" d="m112 114v4h5v-4z" transform="matrix(1,0,0,1.5,-152,-63.5) translate(152,3)"/></g><g id="south-center" stroke-width=".913"><path fill="#bd93f9" stroke-width=".913" d="m264 112v5h5v-5z" transform="matrix(1,0,0,1.2,-165,-27.4)"/></g><g id="south-top" stroke-width=".817"><path fill="#bd93f9" stroke-width=".817" d="m99 103v4h5v-4z" transform="matrix(1,0,0,1.5,-165,-62) translate(165,5)"/></g><g id="south-bottom" fill="url(#g)" transform="translate(-165,-3)"><path fill="url(#f)" d="m99 114v3 1h5v-1-3h-5z" transform="translate(165,3)"/></g><g id="east-center" stroke-width=".845"><path fill="#bd93f9" stroke-width=".845" d="m264 112v5h5v-5z" transform="matrix(0,-1,1.4,0,-62.8,334)"/></g><g id="east-left" stroke-width=".817"><path fill="#bd93f9" stroke-width=".817" d="m91 65v5h4v-5h-3z" transform="matrix(0,-1,1.5,0,-75,334) rotate(90,158.5,175.5)"/></g><g id="east-right"><path fill="url(#c)" d="m102 65v5h3 1v-5h-1-3z" transform="matrix(0,-1,1,0,-15,334) matrix(0,1,-1,0,334,15)"/></g><g id="west-center" stroke-width=".913"><path fill="#bd93f9" stroke-width=".913" d="m264 112v5h5v-5z" transform="matrix(0,-1,1.2,0,-38.4,347)"/></g><g id="west-left" fill="url(#e)" transform="matrix(0,-1,1,0,-17,347)"><path fill="url(#d)" d="m91 78v5h1 3v-5h-3-1z" transform="matrix(0,1,-1,0,347,17)"/></g><g id="west-right" stroke-width=".817"><path fill="#bd93f9" stroke-width=".817" d="m102 78v5h4v-5h-1z" transform="matrix(0,-1,1.5,0,-72.5,347) rotate(90,166,181)"/></g><g id="vertical-centerindicator" transform="translate(1,15)"><rect width="42" height="1" x="11" y="32" opacity=".2"/><rect width="42" height="1" x="11" y="33" fill="#bd93f9"/><rect width="42" height="1" x="11" y="31" fill="#bd93f9"/></g><g id="horizontal-centerindicator" transform="translate(-4,17)"><rect width="42" height="1" x="-31" y="8" opacity=".2" transform="rotate(-90)"/><rect width="42" height="1" x="-31" y="9" fill="#bd93f9" transform="rotate(-90)"/><rect width="42" height="1" x="-31" y="7" fill="#bd93f9" transform="rotate(-90)"/></g><g id="west-minslider"><g><path fill="#fff" d="m419-89.222-1.375 1.4062-3.6562-3.6562 0.0312 7.4688h-2l-0.0312-7.4688-3.625 3.6562-1.375-1.4062 6.0312-6 6 6zm-4-8.7812c0 1.1046-0.89543 2-2 2s-2-0.89543-2-2 0.89543-2 2-2 2 0.89543 2 2z" transform="translate(5.0312 68.003) translate(-405,100)"/></g></g><g id="north-offsetslider"><g><path fill="#fff" d="m387-90.215 1.3858 1.3851 3.6348-3.6349-0.0211 8.4614h2l0.0211-8.4614 3.6344 3.6349 1.3851-1.3851-6.0406-6.0009z" transform="translate(37 108) translate(-385,98.003)"/></g></g><g id="north-maxslider"><g><path fill="#fff" d="m330.22-97.003-1.4062 1.375 3.6562 3.6562-7.4688-0.03125v2l7.4688 0.0312-3.6562 3.625 1.4062 1.375 6-6.0312-6-6zm8.7812 4c-1.1046 0-2 0.89543-2 2s0.89543 2 2 2 2-0.89543 2-2-0.89543-2-2-2z" transform="translate(6.9988 89.969) translate(-325,99.003)"/></g></g><g id="east-offsetslider"><g><path fill="#fff" d="m313.21-97.003-1.3851 1.3859 3.6349 3.6348-8.4614-0.0211v2l8.4614 0.0211-3.6349 3.6344 1.3851 1.3851 6.0009-6.0406z" transform="translate(5.0016 107.96) translate(-305,99.003)"/></g></g><g id="east-minslider"><g><path fill="#fff" d="m419-89.222-1.375 1.4062-3.6562-3.6562 0.0312 7.4688h-2l-0.0312-7.4688-3.625 3.6562-1.375-1.4062 6.0312-6 6 6zm-4-8.7812c0 1.1046-0.89543 2-2 2s-2-0.89543-2-2 0.89543-2 2-2 2 0.89543 2 2z" transform="translate(22.031 68.003) translate(-405,100)"/></g></g><g id="west-maxslider"><g><path fill="#fff" d="m419-89.222-1.375 1.4062-3.6562-3.6562 0.0312 7.4688h-2l-0.0312-7.4688-3.625 3.6562-1.375-1.4062 6.0312-6 6 6zm-4-8.7812c0 1.1046-0.89543 2-2 2s-2-0.89543-2-2 0.89543-2 2-2 2 0.89543 2 2z" transform="matrix(1 0 0 -1 38.031 83.997) translate(-405,100)"/></g></g><g id="east-maxslider"><g><path fill="#fff" d="m419-89.222-1.375 1.4062-3.6562-3.6562 0.0312 7.4688h-2l-0.0312-7.4688-3.625 3.6562-1.375-1.4062 6.0312-6 6 6zm-4-8.7812c0 1.1046-0.89543 2-2 2s-2-0.89543-2-2 0.89543-2 2-2 2 0.89543 2 2z" transform="matrix(1 0 0 -1 55.031 83.997) translate(-405,100)"/></g></g><g id="south-maxslider"><g><path fill="#fff" d="m330.22-97.003-1.4062 1.375 3.6562 3.6562-7.4688-0.03125v2l7.4688 0.0312-3.6562 3.625 1.4062 1.375 6-6.0312-6-6zm8.7812 4c-1.1046 0-2 0.89543-2 2s0.89543 2 2 2 2-0.89543 2-2-0.89543-2-2-2z" transform="translate(25.999 89.969) translate(-325,99.003)"/></g></g><g id="north-minslider"><g><path fill="#fff" d="m330.22-97.003-1.4062 1.375 3.6562 3.6562-7.4688-0.03125v2l7.4688 0.0312-3.6562 3.625 1.4062 1.375 6-6.0312-6-6zm8.7812 4c-1.1046 0-2 0.89543-2 2s0.89543 2 2 2 2-0.89543 2-2-0.89543-2-2-2z" transform="matrix(-1 0 0 1 61.001 89.969) translate(-325,99.003)"/></g></g><g id="south-minslider"><g><path fill="#fff" d="m330.22-97.003-1.4062 1.375 3.6562 3.6562-7.4688-0.03125v2l7.4688 0.0312-3.6562 3.625 1.4062 1.375 6-6.0312-6-6zm8.7812 4c-1.1046 0-2 0.89543-2 2s0.89543 2 2 2 2-0.89543 2-2-0.89543-2-2-2z" transform="matrix(-1 0 0 1 80.001 89.969) translate(-325,99.003)"/></g></g><g id="west-offsetslider"><g><path fill="#fff" d="m313.21-97.003-1.3851 1.3859 3.6349 3.6348-8.4614-0.0211v2l8.4614 0.0211-3.6349 3.6344 1.3851 1.3851 6.0009-6.0406z" transform="matrix(-1 0 0 1 37.211 107.96) translate(-305,99.003)"/></g></g><g id="south-offsetslider"><g><path fill="#fff" d="m387-90.215 1.3858 1.3851 3.6348-3.6349-0.0211 8.4614h2l0.0211-8.4614 3.6344 3.6349 1.3851-1.3851-6.0406-6.0009z" transform="matrix(1 0 0 -1 52 123.79) translate(-385,98.003)"/></g></g></svg>