<svg xmlns="http://www.w3.org/2000/svg" id="svg102" width="17" height="57" version="1.0"><defs id="defs3"><style id="current-color-scheme" type="text/css"/></defs><g id="hover-topleft" opacity="0" transform="translate(755.81 -762.58)"><path id="path5" fill="#2c2e33" d="m162-159a2 2 0 0 1-2 2v-2z" transform="matrix(-.5 0 0 -.5 -639.81 700.08)"/></g><g id="hover-bottomleft" transform="matrix(1 0 0 1.001 755.81 -759.4)"><path id="path8" fill="#bd93f9" d="m-720.81 810.59c-7e-5 -2e-3 -7e-5 1.998-7e-5 1.998h1.0001v-1.998z"/></g><g id="hover-left" opacity="0" transform="matrix(1 0 0 1.6667 755.81 -1299)"><rect id="rect11" width="1" height="21" x="-720.81" y="789.58" fill="#2c2e33"/></g><g id="hover-top" opacity="0" transform="matrix(1.9091 0 0 1 1410.2 -762.58)"><rect id="rect14" width="55" height="1" x="-719.81" y="778.58" fill="#2c2e33"/></g><g id="hover-bottom" transform="matrix(1.9091 0 0 1 1410.2 -758.58)"><path id="path17" fill="#bd93f9" d="m-719.81 810.58h55v2h-55z"/></g><g id="hover-topright" opacity="0" transform="translate(805.81 -762.58)"><path id="path20" fill="#2c2e33" d="m162-159a2 2 0 0 1-2 2v-2z" transform="matrix(.5 0 0 -.5 -744.81 700.08)"/></g><g id="hover-bottomright" transform="translate(805.81 -758.59)"><path id="path23" fill="#bd93f9" d="m-663.81 810.59c-4e-5 -2e-3 -4e-5 1.998-4e-5 1.998h-1.0001v-1.998z"/></g><g id="hover-right" opacity="0" transform="matrix(1 0 0 1.6667 805.81 -1299)"><rect id="rect26" width="1" height="21" x="-664.81" y="789.58" fill="#2c2e33"/></g><rect id="hover-center" width="105" height="35" x="36.5" y="17" fill="#2c2e33" opacity="0"/><g id="focus-topleft" opacity="0" transform="translate(755.81 -714.59)"><path id="path30" fill="#2c2e33" d="m162-159a2 2 0 0 1-2 2v-2z" transform="matrix(-.5 0 0 -.5 -639.81 700.08)"/></g><g id="focus-bottomleft" transform="translate(755.81 -710.59)"><path id="path33" fill="#bd93f9" d="m-720.81 810.59c-3e-3 -9e-3 -7e-5 1.998-7e-5 1.998h1.0001v-1.998z"/></g><g id="focus-left" opacity="0" transform="matrix(1 0 0 1.6667 755.81 -1251)"><rect id="rect36" width="1" height="21" x="-720.81" y="789.58" fill="#2c2e33"/></g><g id="focus-top" opacity="0" transform="matrix(1.9091 0 0 1 1410.2 -714.59)"><rect id="rect39" width="55" height="1" x="-719.81" y="778.58" fill="#2c2e33"/></g><g id="focus-bottom" transform="matrix(1.9091 0 0 1 1410.2 -710.59)"><path id="path42" fill="#bd93f9" d="m-719.81 810.58h55v1.998h-55z"/></g><g id="focus-topright" opacity="0" transform="translate(805.81 -714.59)"><path id="path45" fill="#2c2e33" d="m162-159a2 2 0 0 1-2 2v-2z" transform="matrix(.5 0 0 -.5 -744.81 700.08)"/></g><g id="focus-bottomright" transform="translate(805.81 -710.59)"><path id="path48" fill="#bd93f9" d="m-663.81 810.59-4e-5 1.998h-0.99996v-1.998z"/></g><g id="focus-right" opacity="0" transform="matrix(1 0 0 1.6667 805.81 -1251)"><rect id="rect51" width="1" height="21" x="-664.81" y="789.58" fill="#2c2e33"/></g><rect id="focus-center" width="105" height="35" x="36.001" y="64.992" opacity="0"/><g fill="#4e9a06"><rect id="hover-hint-bottom-margin" width="2" height="2" x="87.5" y="52"/><rect id="hover-hint-top-margin" width="2" height="1" x="88" y="16"/><rect id="hover-hint-left-margin" width="2" height="1" x="-35" y="35.5" transform="rotate(-90)"/><rect id="hover-hint-right-margin" width="2" height="1" x="-35" y="141.5" transform="rotate(-90)"/><rect id="focus-hint-bottom-margin" width="2" height="2" x="87.5" y="100"/><rect id="focus-hint-top-margin" width="2" height="1" x="87.5" y="64"/><rect id="focus-hint-left-margin" width="2" height="1" x="-82.9" y="35.4" transform="rotate(-90)"/><rect id="focus-hint-right-margin" width="2" height="1" x="-83" y="141.5" transform="rotate(-90)"/><rect id="base-hint-top-margin" width="2" height="1" x="88" y="-40"/><rect id="base-hint-right-margin" width="2" height="1" x="21" y="141.5" transform="rotate(-90)"/><rect id="base-hint-left-margin" width="2" height="1" x="21" y="35.5" transform="rotate(-90)"/><rect id="base-hint-bottom-margin" width="2" height="2" x="89.5" y="-4"/></g><g id="base-topleft" opacity="0" transform="translate(755.81 -818.57)"><path id="path69" d="m162-159a2 2 0 0 1-2 2v-2z" color="#eff0f1" transform="matrix(-.5 0 0 -.5 -639.81 700.08)"/></g><g id="base-bottomleft" fill="#fff" stroke-width="1.019" transform="matrix(.96145 0 0 1.002 728.06 -816.21)"><path id="path72" d="m-720.81 810.59-7e-5 1.9959 1.0001 9e-5v-1.996z" color="#eff0f1" opacity="0"/><path id="path74" fill="#bd93f9" stroke-width="1.019" d="m-720.85 811.59-7e-5 0.99796 1.0402 4e-5v-0.998z" color="#eff0f1" opacity=".25"/></g><g id="base-left" opacity="0" transform="matrix(1 0 0 1.6667 755.81 -1355)"><rect id="rect77" width="1" height="21" x="-720.81" y="789.58" color="#eff0f1"/></g><g id="base-top" opacity="0" transform="matrix(1.9091 0 0 1 1410.2 -818.57)"><rect id="rect80" width="55" height="1" x="-719.81" y="778.58" color="#eff0f1"/></g><g id="base-bottom" fill="#fff" transform="matrix(1.9084 0 0 1.002 1409.7 -816.2)"><rect id="rect83" width="55" height="1.996" x="-719.81" y="810.58" stroke-width="1" color="#eff0f1" opacity="0"/><rect id="rect85" width="55.02" height=".998" x="-719.83" y="811.58" fill="#bd93f9" stroke-width=".999" color="#eff0f1" opacity=".25"/></g><g id="base-topright" opacity="0" transform="translate(805.81 -818.57)"><path id="path88" d="m162-159a2 2 0 0 1-2 2v-2z" color="#eff0f1" transform="matrix(.5 0 0 -.5 -744.81 700.08)"/></g><g id="base-bottomright" fill="#fff" stroke-width="1.02" transform="matrix(.96154 0 0 1.002 780.28 -816.21)"><path id="path91" d="m-663.81 810.59-4e-5 1.9959-0.99996 9e-5v-1.996z" color="#eff0f1" opacity="0"/><path id="path93" fill="#bd93f9" d="m-663.81 811.59-4e-5 0.99897-1.04 4e-5v-0.99901z" color="#eff0f1" opacity=".25"/></g><g id="base-right" opacity="0" transform="matrix(1 0 0 1.6667 805.81 -1355)"><rect id="rect96" width="1" height="21" x="-664.81" y="789.58" color="#eff0f1"/></g><g id="base-center" opacity="0" transform="translate(-74 9.0063)"><rect id="rect99" width="105" height="35" x="110" y="-48"/></g></svg>