<svg xmlns="http://www.w3.org/2000/svg" xmlns:svg="http://www.w3.org/2000/svg" xmlns:xlink="http://www.w3.org/1999/xlink" id="svg200" width="173" height="56" version="1.1" viewBox="0 0 173 56"><metadata id="metadata204"/><defs id="defs24"><style id="current-color-scheme" type="text/css">.ColorScheme-Background{color:#eff0f1;stop-color:#eff0f1}</style><radialGradient id="b" cx="54.25" cy="945.11" r="6" gradientTransform="matrix(2.1666e-7 1 -.99999 2.1665e-7 1058.1 -6.2502)" gradientUnits="userSpaceOnUse" xlink:href="#a"/><radialGradient id="c" cx="7.643" cy="950.36" r="6" gradientTransform="matrix(-1 -1.5531e-6 1.5531e-6 -1 80.641 998.36)" gradientUnits="userSpaceOnUse" xlink:href="#a"/><radialGradient id="d" cx="53.893" cy="911.76" r="6" gradientTransform="matrix(1 4.4078e-7 -3.4751e-7 1 59.107 -903.77)" gradientUnits="userSpaceOnUse" xlink:href="#a"/><radialGradient id="e" cx="22.2" cy="913.97" r="6" gradientTransform="matrix(-1.2274e-7 -1 1 -1.2274e-7 -840.98 30.2)" gradientUnits="userSpaceOnUse" xlink:href="#a"/><linearGradient id="f" x1="55" x2="61" y1="932.36" y2="932.36" gradientUnits="userSpaceOnUse" xlink:href="#a"/><linearGradient id="a"><stop id="stop8" offset="0" stop-opacity=".667"/><stop id="stop10" offset="1" stop-opacity="0"/></linearGradient><linearGradient id="g" x1="-15" x2="-9" y1="932.36" y2="932.36" gradientUnits="userSpaceOnUse" xlink:href="#a"/><linearGradient id="i" x1="51" x2="51" y1="48" y2="54" gradientTransform="translate(58)" gradientUnits="userSpaceOnUse" xlink:href="#a"/><linearGradient id="h" x1="55" x2="61" y1="44" y2="44" gradientUnits="userSpaceOnUse" xlink:href="#a"/><linearGradient id="k" x1="19" x2="19" y1="48" y2="54" gradientTransform="translate(58)" gradientUnits="userSpaceOnUse" xlink:href="#a"/><linearGradient id="j" x1="15" x2="9" y1="44" y2="44" gradientUnits="userSpaceOnUse" xlink:href="#a"/><linearGradient id="l" x1="952.36" x2="958.36" y1="-35" y2="-35" gradientUnits="userSpaceOnUse" xlink:href="#a"/><linearGradient id="n" x1="55" x2="61" y1="12" y2="12" gradientUnits="userSpaceOnUse" xlink:href="#a"/><linearGradient id="m" x1="51" x2="51" y1="8" y2="2" gradientTransform="translate(58)" gradientUnits="userSpaceOnUse" xlink:href="#a"/><linearGradient id="p" x1="15" x2="9" y1="12" y2="12" gradientUnits="userSpaceOnUse" xlink:href="#a"/><linearGradient id="o" x1="19" x2="19" y1="8" y2="2" gradientTransform="translate(58)" gradientUnits="userSpaceOnUse" xlink:href="#a"/><linearGradient id="q" x1="-912.36" x2="-906.36" y1="-35" y2="-35" gradientUnits="userSpaceOnUse" xlink:href="#a"/></defs><g id="g198" transform="translate(0 -904.36)"><rect id="hint-tile-center" width="5" height="5" y="904.36" fill="#f60"/><g id="top"><rect id="rect27" width="6" height="32" x="-916.36" y="-51" class="ColorScheme-Background" transform="matrix(0,-1,-1,0,0,0)" style="color:#eff0f1;fill:#1e1f29"/></g><g id="topleft"><path id="path30" d="m 14,6 c -0.55399,0 -1,0.44601 -1,1 v 5 h 6 V 6 Z" class="ColorScheme-Background" transform="translate(0,904.36)" style="color:#eff0f1;fill:#1e1f29"/></g><g id="topright"><path id="path33" d="m 51,6 v 6 h 6 V 7 C 57,6.44601 56.55399,6 56,6 Z" class="ColorScheme-Background" transform="translate(0,904.36)" style="color:#eff0f1;fill:#1e1f29"/></g><g id="bottom"><rect id="rect36" width="6" height="32" x="948.36" y="-51" class="ColorScheme-Background" transform="rotate(90)" style="color:#eff0f1;fill:#1e1f29"/></g><g id="bottomleft"><path id="path39" d="m 19,954.36 v -6 h -6 v 5 c 0,0.55399 0.44601,1 1,1 z" class="ColorScheme-Background" style="color:#eff0f1;fill:#1e1f29"/></g><g id="bottomright"><path id="path42" d="m 51,954.36 v -6 h 6 v 5 c 0,0.55399 -0.44601,1 -1,1 z" class="ColorScheme-Background" style="color:#eff0f1;fill:#1e1f29"/></g><g id="left"><rect id="rect45" width="6" height="32" x="-19" y="916.36" class="ColorScheme-Background" transform="scale(-1,1)" style="color:#eff0f1;fill:#1e1f29"/></g><g id="right"><rect id="rect48" width="6" height="32" x="51" y="916.36" class="ColorScheme-Background" style="color:#eff0f1;fill:#1e1f29"/></g><g id="center"><rect id="rect51" width="32" height="32" x="19" y="916.36" fill="none"/><rect id="rect53" width="32" height="32" x="19" y="916.36" class="ColorScheme-Background" style="color:#eff0f1;fill:#1e1f29"/></g><g id="g60" fill="#f0f"><rect id="hint-top-margin" width="4" height="2" x="33" y="910.36"/><rect id="hint-bottom-margin" width="4" height="2" x="33" y="952.36"/><rect id="hint-right-margin" width="4" height="2" x="930.36" y="-57" transform="rotate(90)"/><rect id="hint-left-margin" width="4" height="2" x="930.36" y="-15" transform="rotate(90)"/></g><g id="mask-top" transform="translate(116)"><rect id="rect62" width="5" height="32" x="-915.36" y="-51" opacity=".97" transform="matrix(0,-1,-1,0,0,0)"/></g><g id="mask-topleft" transform="translate(116)"><path id="path65" d="m130 6c-0.55399 0-1 0.44601-1 1v4h5v-5h-4z" opacity=".97" transform="translate(-116 904.36)"/></g><g id="mask-topright" transform="translate(116)"><path id="path68" d="m168 6v5h5v-4c0-0.55399-0.44601-1-1-1h-4z" opacity=".97" transform="translate(-116 904.36)"/></g><g id="mask-bottom" transform="translate(116)"><rect id="rect71" width="5" height="32" x="949.36" y="-51" opacity=".97" transform="rotate(90)"/></g><g id="mask-bottomleft" transform="translate(116)"><path id="path74" d="m129 45v4c0 0.55399 0.44601 1 1 1h4v-5h-5z" opacity=".97" transform="translate(-116 904.36)"/></g><g id="mask-bottomright" transform="translate(116)"><path id="path77" d="m168 45v5h4c0.55399 0 1-0.44601 1-1v-4h-5z" opacity=".97" transform="translate(-116 904.36)"/></g><g id="mask-left" transform="translate(116)"><rect id="rect80" width="5" height="32" x="-18" y="916.36" opacity=".97" transform="scale(-1,1)"/></g><g id="mask-right" transform="translate(116)"><rect id="rect83" width="5" height="32" x="52" y="916.36" opacity=".97"/></g><g id="mask-center" transform="translate(116)"><rect id="rect86" width="32" height="32" x="19" y="916.36" fill="none"/><rect id="rect88" width="32" height="32" x="19" y="916.36" opacity=".97"/></g><g id="shadow-top" transform="translate(58 -1.853e-7)"><rect id="rect91" width="6" height="32" x="-916.36" y="-51" fill="none" transform="matrix(0,-1,-1,0,0,0)"/><rect id="rect93" width="6" height="32" x="-910.36" y="-51" fill="url(#q)" opacity=".35" transform="matrix(0,-1,-1,0,0,0)"/><rect id="rect95" width="1" height="32" x="-911.36" y="-51" fill="none" transform="matrix(0,-1,-1,0,0,0)"/></g><g id="shadow-topleft" transform="translate(58 -1.853e-7)"><g id="g104" fill-rule="evenodd"><path id="path98" fill="url(#p)" d="m7 7v5h6v-5h-6z" opacity=".35" transform="translate(0 904.36)"/><path id="path100" fill="url(#e)" d="m65 0v7h6c0-1 1-1 1-1v-6h-7z" opacity=".35" transform="translate(-58 904.36)"/><path id="path102" fill="url(#o)" d="m72 0v6h5v-6h-5z" opacity=".35" transform="translate(-58 904.36)"/></g><g id="g112" fill="none"><rect id="rect106" width="6" height="6" x="-19" y="910.36" ry="1" transform="scale(-1,1)"/><rect id="rect108" width="2" height="6" x="-19" y="910.36" ry="0" transform="scale(-1,1)"/><rect id="rect110" width="5" height="2" x="-18" y="914.36" transform="scale(-1,1)"/></g></g><g id="shadow-topright" transform="translate(58 -1.853e-7)"><g id="g121" fill-rule="evenodd"><path id="path115" fill="url(#n)" d="m57 7v5h6v-5h-6z" opacity=".35" transform="translate(0 904.36)"/><path id="path117" fill="url(#d)" d="m114 0v6s1 0 1 1h6v-7h-7z" opacity=".35" transform="translate(-58 904.36)"/><path id="path119" fill="url(#m)" d="m109 0v6h5v-6h-5z" opacity=".35" transform="translate(-58 904.36)"/></g><g id="g129" fill="none"><rect id="rect123" width="6" height="6" x="51" y="910.36" ry="1"/><rect id="rect125" width="2" height="6" x="51" y="910.36" ry="0"/><rect id="rect127" width="5" height="2" x="52" y="914.36"/></g></g><g id="shadow-bottom" transform="translate(58 -1.853e-7)"><rect id="rect132" width="6" height="32" x="948.36" y="-51" fill="none" transform="rotate(90)"/><rect id="rect134" width="6" height="32" x="954.36" y="-51" fill="url(#l)" opacity=".35" transform="rotate(90)"/><rect id="rect136" width="1" height="32" x="953.36" y="-51" fill="none" transform="rotate(90)"/></g><g id="shadow-bottomleft" transform="translate(58 -1.853e-7)"><g id="g145" fill-rule="evenodd"><path id="path139" fill="url(#k)" d="m72 50v6h5v-6h-5z" opacity=".35" transform="translate(-58 904.36)"/><path id="path141" fill="url(#c)" d="m65 49v7h7v-6c-1 0-1-1-1-1h-6z" opacity=".35" transform="translate(-58 904.36)"/><path id="path143" fill="url(#j)" d="m7 44v5h6v-5h-6z" opacity=".35" transform="translate(0 904.36)"/></g><g id="g153" fill="none"><rect id="rect147" width="6" height="6" x="-19" y="-954.36" ry="1" transform="scale(-1)"/><rect id="rect149" width="2" height="6" x="-19" y="-954.36" ry="0" transform="scale(-1)"/><rect id="rect151" width="5" height="2" x="-18" y="-950.36" transform="scale(-1)"/></g></g><g id="shadow-bottomright" transform="translate(58 -1.853e-7)"><g id="g162" fill-rule="evenodd"><path id="path156" fill="url(#i)" d="m109 50v6h5v-6h-5z" opacity=".35" transform="translate(-58 904.36)"/><path id="path158" fill="url(#b)" d="m115 49s0 1-1 1v6h7v-7h-6z" opacity=".35" transform="translate(-58 904.36)"/><path id="path160" fill="url(#h)" d="m57 44v5h6v-5h-6z" opacity=".35" transform="translate(0 904.36)"/></g><g id="g170" fill="none"><rect id="rect164" width="6" height="6" x="51" y="-954.36" ry="1" transform="scale(1,-1)"/><rect id="rect166" width="2" height="6" x="51" y="-954.36" ry="0" transform="scale(1,-1)"/><rect id="rect168" width="5" height="2" x="52" y="-950.36" transform="scale(1,-1)"/></g></g><g id="shadow-left" transform="translate(58 -1.853e-7)"><rect id="rect173" width="6" height="32" x="-19" y="916.36" fill="none" transform="scale(-1,1)"/><rect id="rect175" width="6" height="32" x="-13" y="916.36" fill="url(#g)" opacity=".35" transform="scale(-1,1)"/><rect id="rect177" width="1" height="32" x="-14" y="916.36" fill="none" transform="scale(-1,1)"/></g><g id="shadow-right" transform="translate(58 -1.853e-7)"><rect id="rect180" width="6" height="32" x="51" y="916.36" fill="none"/><rect id="rect182" width="6" height="32" x="57" y="916.36" fill="url(#f)" opacity=".35"/><rect id="rect184" width="1" height="32" x="56" y="916.36" fill="none"/></g><g id="shadow-center" fill="none" transform="translate(58 -1.853e-7)"><rect id="rect187" width="32" height="32" x="19" y="916.36"/><rect id="rect189" width="32" height="32" x="19" y="916.36"/></g><g id="g196" fill="#f0f"><rect id="shadow-hint-top-margin" width="4" height="6" x="91" y="904.36"/><rect id="shadow-hint-bottom-margin" width="4" height="6" x="91" y="954.36"/><rect id="shadow-hint-right-margin" width="4" height="6" x="930.36" y="-121" transform="rotate(90)"/><rect id="shadow-hint-left-margin" width="4" height="6" x="930.36" y="-71" transform="rotate(90)"/></g></g></svg>