<svg xmlns="http://www.w3.org/2000/svg" width="48" height="98" version="1.0"><rect id="slider-center" width="1" height="10" x="24" y="20" fill="#fff" fill-rule="evenodd" class="ColorScheme-Text" opacity=".25"/><g id="slider-right" transform="matrix(.75 0 0 1 19.25 13)"><path fill="#fff" fill-rule="evenodd" d="m9 7v10h4v-10h-4z" class="ColorScheme-Text" opacity=".25"/><rect width="1" height="10" x="29" y="20" fill="#e4e6e8" opacity=".01" transform="matrix(1.3333 0 0 1 -25.667 -13)"/></g><g id="slider-topright" transform="matrix(.75 0 0 .75 19.25 13.75)"><rect width="4" height="4" x="26" y="15" fill="#e4e6e8" opacity=".01" transform="matrix(1.3333 0 0 1.3333 -25.667 -18.333)"/><path fill="#fff" fill-rule="evenodd" d="m9 3v4h4c0-2.216-1.784-4-4-4z" class="ColorScheme-Text" opacity=".25"/></g><g id="slider-bottomright" transform="matrix(.75 0 0 .75 19.25 18.25)"><rect width="4" height="4" x="26" y="31" fill="#e4e6e8" opacity=".01" transform="matrix(1.3333 0 0 1.3333 -25.667 -24.333)"/><path fill="#fff" fill-rule="evenodd" d="m9 21v-4h4c0 2.216-1.784 4-4 4z" class="ColorScheme-Text" opacity=".25"/></g><g id="slider-left" transform="matrix(-.75 0 0 1 29.75 13)"><path fill="#fff" fill-rule="evenodd" d="m9 7v10h4v-10h-4z" class="ColorScheme-Text" opacity=".25"/><rect width="1" height="10" x="19" y="20" fill="#e4e6e8" opacity=".01" transform="matrix(-1.3333 0 0 1 39.667 -13)"/></g><g id="slider-topleft" transform="matrix(-.75 0 0 .75 29.75 13.75)"><rect width="4" height="4" x="19" y="15" fill="#e4e6e8" opacity=".01" transform="matrix(-1.3333 0 0 1.3333 39.667 -18.333)"/><path fill="#fff" fill-rule="evenodd" d="m9 3v4h4c0-2.216-1.784-4-4-4z" class="ColorScheme-Text" opacity=".25"/></g><g id="slider-bottomleft" transform="matrix(-.75 0 0 .75 29.75 18.25)"><rect width="4" height="4" x="19" y="31" fill="#e4e6e8" opacity=".01" transform="matrix(-1.3333 0 0 1.3333 39.667 -24.333)"/><path fill="#fff" fill-rule="evenodd" d="m9 21v-4h4c0 2.216-1.784 4-4 4z" class="ColorScheme-Text" opacity=".25"/></g><g id="slider-top" transform="matrix(0 -.75 -.1 0 25.7 25.75)"><rect width="1" height="4" x="24" y="15" fill="#e4e6e8" opacity=".01" transform="matrix(0 -10 -1.3333 0 34.333 257)"/><path fill="#fff" fill-rule="evenodd" d="m9 7v10h4v-10h-4z" class="ColorScheme-Text" opacity=".25"/></g><g id="slider-bottom" transform="matrix(0 .75 -.1 0 25.7 24.25)"><rect width="1" height="4" x="24" y="31" fill="#e4e6e8" opacity=".01" transform="matrix(0 -10 1.3333 0 -32.333 257)"/><path fill="#fff" fill-rule="evenodd" d="m9 7v10h4v-10h-4z" class="ColorScheme-Text" opacity=".25"/></g><rect id="hint-scrollbar-size" width="8" height="8" x="4" y="25" fill="#4e9a06" rx="0" ry="8"/><rect id="hint-tile-center" width="2.033" height="2.077" x="7.26" y="11.659" fill="#4e9a06" rx="0" ry="2.077"/><g id="background-vertical-right" transform="matrix(.75 0 0 1 33.25 13)"><path fill="currentColor" fill-rule="evenodd" d="m9 7v10h4v-10h-4z" class="ColorScheme-Text" opacity=".4"/><rect width="1" height="10" x="43" y="20" fill="#e4e6e8" opacity=".01" transform="matrix(1.3333 0 0 1 -44.333 -13)"/><path fill-rule="evenodd" d="m9 7v10h4v-10h-4z" class="ColorScheme-ViewBackground" opacity=".1"/></g><g id="background-vertical-topright" transform="matrix(.75 0 0 .75 33.25 13.75)"><rect width="4" height="4" x="40" y="15" fill="#e4e6e8" opacity=".01" transform="matrix(1.3333 0 0 1.3333 -44.333 -18.333)"/><path fill="currentColor" fill-rule="evenodd" d="m9 3v4h4c0-2.216-1.784-4-4-4z" class="ColorScheme-Text" opacity=".4"/><path fill-rule="evenodd" d="m9 3v4h4c0-2.216-1.784-4-4-4z" class="ColorScheme-ViewBackground" opacity=".1"/></g><g id="background-vertical-bottomright" transform="matrix(.75 0 0 .75 33.25 18.25)"><rect width="4" height="4" x="40" y="31" fill="#e4e6e8" opacity=".01" transform="matrix(1.3333 0 0 1.3333 -44.333 -24.333)"/><path fill="currentColor" fill-rule="evenodd" d="m9 21v-4h4c0 2.216-1.784 4-4 4z" class="ColorScheme-Text" opacity=".4"/><path fill-rule="evenodd" d="m9 21v-4h4c0 2.216-1.784 4-4 4z" class="ColorScheme-ViewBackground" opacity=".1"/></g><g id="background-vertical-left" transform="matrix(-.75 0 0 1 43.75 13)"><path fill="currentColor" fill-rule="evenodd" d="m9 7v10h4v-10h-4z" class="ColorScheme-Text" opacity=".4"/><rect width="1" height="10" x="33" y="20" fill="#e4e6e8" opacity=".01" transform="matrix(-1.3333 0 0 1 58.333 -13)"/><path fill-rule="evenodd" d="m9 7v10h4v-10h-4z" class="ColorScheme-ViewBackground" opacity=".1"/></g><g id="background-vertical-topleft" transform="matrix(-.75 0 0 .75 43.75 13.75)"><rect width="4" height="4" x="33" y="15" fill="#e4e6e8" opacity=".01" transform="matrix(-1.3333 0 0 1.3333 58.333 -18.333)"/><path fill="currentColor" fill-rule="evenodd" d="m9 3v4h4c0-2.216-1.784-4-4-4z" class="ColorScheme-Text" opacity=".4"/><path fill-rule="evenodd" d="m9 3v4h4c0-2.216-1.784-4-4-4z" class="ColorScheme-ViewBackground" opacity=".1"/></g><g id="background-vertical-bottomleft" transform="matrix(-.75 0 0 .75 43.75 18.25)"><rect width="4" height="4" x="33" y="31" fill="#e4e6e8" opacity=".01" transform="matrix(-1.3333 0 0 1.3333 58.333 -24.333)"/><path fill="currentColor" fill-rule="evenodd" d="m9 21v-4h4c0 2.216-1.784 4-4 4z" class="ColorScheme-Text" opacity=".4"/><path fill-rule="evenodd" d="m9 21v-4h4c0 2.216-1.784 4-4 4z" class="ColorScheme-ViewBackground" opacity=".1"/></g><g id="background-vertical-top" transform="matrix(0 -.75 -.1 0 39.7 25.75)"><rect width="1" height="4" x="38" y="15" fill="#e4e6e8" opacity=".01" transform="matrix(0 -10 -1.3333 0 34.333 397)"/><path fill="currentColor" fill-rule="evenodd" d="m9 7v10h4v-10h-4z" class="ColorScheme-Text" opacity=".4"/><path fill-rule="evenodd" d="m9 7v10h4v-10h-4z" class="ColorScheme-ViewBackground" opacity=".1"/></g><g id="background-vertical-bottom" transform="matrix(0 .75 -.1 0 39.7 24.25)"><rect width="1" height="4" x="38" y="31" fill="#e4e6e8" opacity=".01" transform="matrix(0 -10 1.3333 0 -32.333 397)"/><path fill="currentColor" fill-rule="evenodd" d="m9 7v10h4v-10h-4z" class="ColorScheme-Text" opacity=".4"/><path fill-rule="evenodd" d="m9 7v10h4v-10h-4z" class="ColorScheme-ViewBackground" opacity=".1"/></g><rect id="sunken-slider-center" width="1" height="10" x="24" y="64" fill="#bd93f9" fill-rule="evenodd" class="ColorScheme-ButtonHover"/><g id="sunken-slider-right" transform="matrix(.75 0 0 1 19.25 57)"><path fill="#bd93f9" fill-rule="evenodd" d="m9 7v10h4v-10h-4z" class="ColorScheme-ButtonHover"/><rect width="1" height="10" x="29" y="64" fill="#e4e6e8" opacity=".01" transform="matrix(1.3333 0 0 1 -25.667 -57)"/></g><g id="sunken-slider-topright" transform="matrix(.75 0 0 .75 19.25 57.75)"><rect width="4" height="4" x="26" y="59" fill="#e4e6e8" opacity=".01" transform="matrix(1.3333 0 0 1.3333 -25.667 -77)"/><path fill="#bd93f9" fill-rule="evenodd" d="m9 3v4h4c0-2.216-1.784-4-4-4z" class="ColorScheme-ButtonHover"/></g><g id="sunken-slider-bottomright" transform="matrix(.75 0 0 .75 19.25 62.25)"><rect width="4" height="4" x="26" y="75" fill="#e4e6e8" opacity=".01" transform="matrix(1.3333 0 0 1.3333 -25.667 -83)"/><path fill="#bd93f9" fill-rule="evenodd" d="m9 21v-4h4c0 2.216-1.784 4-4 4z" class="ColorScheme-ButtonHover"/></g><g id="sunken-slider-left" transform="matrix(-.75 0 0 1 29.75 57)"><path fill="#bd93f9" fill-rule="evenodd" d="m9 7v10h4v-10h-4z" class="ColorScheme-ButtonHover"/><rect width="1" height="10" x="19" y="64" fill="#e4e6e8" opacity=".01" transform="matrix(-1.3333 0 0 1 39.667 -57)"/></g><g id="sunken-slider-topleft" transform="matrix(-.75 0 0 .75 29.75 57.75)"><rect width="4" height="4" x="19" y="59" fill="#e4e6e8" opacity=".01" transform="matrix(-1.3333 0 0 1.3333 39.667 -77)"/><path fill="#bd93f9" fill-rule="evenodd" d="m9 3v4h4c0-2.216-1.784-4-4-4z" class="ColorScheme-ButtonHover"/></g><g id="sunken-slider-bottomleft" transform="matrix(-.75 0 0 .75 29.75 62.25)"><rect width="4" height="4" x="19" y="75" fill="#e4e6e8" opacity=".01" transform="matrix(-1.3333 0 0 1.3333 39.667 -83)"/><path fill="#bd93f9" fill-rule="evenodd" d="m9 21v-4h4c0 2.216-1.784 4-4 4z" class="ColorScheme-ButtonHover"/></g><g id="sunken-slider-top" transform="matrix(0 -.75 -.1 0 25.7 69.75)"><rect width="1" height="4" x="24" y="59" fill="#e4e6e8" opacity=".01" transform="matrix(0 -10 -1.3333 0 93 257)"/><path fill="#bd93f9" fill-rule="evenodd" d="m9 7v10h4v-10h-4z" class="ColorScheme-ButtonHover"/></g><g id="sunken-slider-bottom" transform="matrix(0 .75 -.1 0 25.7 68.25)"><rect width="1" height="4" x="24" y="75" fill="#e4e6e8" opacity=".01" transform="matrix(0 -10 1.3333 0 -91 257)"/><path fill="#bd93f9" fill-rule="evenodd" d="m9 7v10h4v-10h-4z" class="ColorScheme-ButtonHover"/></g><rect id="mouseover-slider-center" width="1" height="10" x="24" y="42" fill="#bd93f9" fill-rule="evenodd" class="ColorScheme-ButtonHover" opacity=".6"/><g id="mouseover-slider-right" transform="matrix(.75 0 0 1 19.25 35)"><path fill="#bd93f9" fill-rule="evenodd" d="m9 7v10h4v-10h-4z" class="ColorScheme-ButtonHover" opacity=".6"/><rect width="1" height="10" x="29" y="64" fill="#e4e6e8" opacity=".01" transform="matrix(1.3333 0 0 1 -25.667 -57)"/></g><g id="mouseover-slider-topright" transform="matrix(.75 0 0 .75 19.25 35.75)"><rect width="4" height="4" x="26" y="59" fill="#e4e6e8" opacity=".01" transform="matrix(1.3333 0 0 1.3333 -25.667 -77)"/><path fill="#bd93f9" fill-rule="evenodd" d="m9 3v4h4c0-2.216-1.784-4-4-4z" class="ColorScheme-ButtonHover" opacity=".6"/></g><g id="mouseover-slider-bottomright" transform="matrix(.75 0 0 .75 19.25 40.25)"><rect width="4" height="4" x="26" y="75" fill="#e4e6e8" opacity=".01" transform="matrix(1.3333 0 0 1.3333 -25.667 -83)"/><path fill="#bd93f9" fill-rule="evenodd" d="m9 21v-4h4c0 2.216-1.784 4-4 4z" class="ColorScheme-ButtonHover" opacity=".6"/></g><g id="mouseover-slider-left" transform="matrix(-.75 0 0 1 29.75 35)"><path fill="#bd93f9" fill-rule="evenodd" d="m9 7v10h4v-10h-4z" class="ColorScheme-ButtonHover" opacity=".6"/><rect width="1" height="10" x="19" y="64" fill="#e4e6e8" opacity=".01" transform="matrix(-1.3333 0 0 1 39.667 -57)"/></g><g id="mouseover-slider-topleft" transform="matrix(-.75 0 0 .75 29.75 35.75)"><rect width="4" height="4" x="19" y="59" fill="#e4e6e8" opacity=".01" transform="matrix(-1.3333 0 0 1.3333 39.667 -77)"/><path fill="#bd93f9" fill-rule="evenodd" d="m9 3v4h4c0-2.216-1.784-4-4-4z" class="ColorScheme-ButtonHover" opacity=".6"/></g><g id="mouseover-slider-bottomleft" transform="matrix(-.75 0 0 .75 29.75 40.25)"><rect width="4" height="4" x="19" y="75" fill="#e4e6e8" opacity=".01" transform="matrix(-1.3333 0 0 1.3333 39.667 -83)"/><path fill="#bd93f9" fill-rule="evenodd" d="m9 21v-4h4c0 2.216-1.784 4-4 4z" class="ColorScheme-ButtonHover" opacity=".6"/></g><g id="mouseover-slider-top" transform="matrix(0 -.75 -.1 0 25.7 47.75)"><rect width="1" height="4" x="24" y="59" fill="#e4e6e8" opacity=".01" transform="matrix(0 -10 -1.3333 0 93 257)"/><path fill="#bd93f9" fill-rule="evenodd" d="m9 7v10h4v-10h-4z" class="ColorScheme-ButtonHover" opacity=".6"/></g><g id="mouseover-slider-bottom" transform="matrix(0 .75 -.1 0 25.7 46.25)"><rect width="1" height="4" x="24" y="75" fill="#e4e6e8" opacity=".01" transform="matrix(0 -10 1.3333 0 -91 257)"/><path fill="#bd93f9" fill-rule="evenodd" d="m9 7v10h4v-10h-4z" class="ColorScheme-ButtonHover" opacity=".6"/></g><g id="background-vertical-center" fill-rule="evenodd"><rect width="1" height="10" x="38" y="20" fill="currentColor" class="ColorScheme-Text" opacity=".4"/><rect width="1" height="10" x="38" y="20" class="ColorScheme-ViewBackground" opacity=".1"/></g><g id="background-horizontal-right" transform="matrix(.75 0 0 1 33.25 35)"><path fill="currentColor" fill-rule="evenodd" d="m9 7v10h4v-10h-4z" class="ColorScheme-Text" opacity=".4"/><rect width="1" height="10" x="43" y="20" fill="#e4e6e8" opacity=".01" transform="matrix(1.3333 0 0 1 -44.333 -13)"/><path fill-rule="evenodd" d="m9 7v10h4v-10h-4z" class="ColorScheme-ViewBackground" opacity=".1"/></g><g id="background-horizontal-topright" transform="matrix(.75 0 0 .75 33.25 35.75)"><rect width="4" height="4" x="40" y="15" fill="#e4e6e8" opacity=".01" transform="matrix(1.3333 0 0 1.3333 -44.333 -18.333)"/><path fill="currentColor" fill-rule="evenodd" d="m9 3v4h4c0-2.216-1.784-4-4-4z" class="ColorScheme-Text" opacity=".4"/><path fill-rule="evenodd" d="m9 3v4h4c0-2.216-1.784-4-4-4z" class="ColorScheme-ViewBackground" opacity=".1"/></g><g id="background-horizontal-bottomright" transform="matrix(.75 0 0 .75 33.25 40.25)"><rect width="4" height="4" x="40" y="31" fill="#e4e6e8" opacity=".01" transform="matrix(1.3333 0 0 1.3333 -44.333 -24.333)"/><path fill="currentColor" fill-rule="evenodd" d="m9 21v-4h4c0 2.216-1.784 4-4 4z" class="ColorScheme-Text" opacity=".4"/><path fill-rule="evenodd" d="m9 21v-4h4c0 2.216-1.784 4-4 4z" class="ColorScheme-ViewBackground" opacity=".1"/></g><g id="background-horizontal-left" transform="matrix(-.75 0 0 1 43.75 35)"><path fill="currentColor" fill-rule="evenodd" d="m9 7v10h4v-10h-4z" class="ColorScheme-Text" opacity=".4"/><rect width="1" height="10" x="33" y="20" fill="#e4e6e8" opacity=".01" transform="matrix(-1.3333 0 0 1 58.333 -13)"/><path fill-rule="evenodd" d="m9 7v10h4v-10h-4z" class="ColorScheme-ViewBackground" opacity=".1"/></g><g id="background-horizontal-topleft" transform="matrix(-.75 0 0 .75 43.75 35.75)"><rect width="4" height="4" x="33" y="15" fill="#e4e6e8" opacity=".01" transform="matrix(-1.3333 0 0 1.3333 58.333 -18.333)"/><path fill="currentColor" fill-rule="evenodd" d="m9 3v4h4c0-2.216-1.784-4-4-4z" class="ColorScheme-Text" opacity=".4"/><path fill-rule="evenodd" d="m9 3v4h4c0-2.216-1.784-4-4-4z" class="ColorScheme-ViewBackground" opacity=".1"/></g><g id="background-horizontal-bottomleft" transform="matrix(-.75 0 0 .75 43.75 40.25)"><rect width="4" height="4" x="33" y="31" fill="#e4e6e8" opacity=".01" transform="matrix(-1.3333 0 0 1.3333 58.333 -24.333)"/><path fill="currentColor" fill-rule="evenodd" d="m9 21v-4h4c0 2.216-1.784 4-4 4z" class="ColorScheme-Text" opacity=".4"/><path fill-rule="evenodd" d="m9 21v-4h4c0 2.216-1.784 4-4 4z" class="ColorScheme-ViewBackground" opacity=".1"/></g><g id="background-horizontal-top" transform="matrix(0 -.75 -.1 0 39.7 47.75)"><rect width="1" height="4" x="38" y="15" fill="#e4e6e8" opacity=".01" transform="matrix(0 -10 -1.3333 0 34.333 397)"/><path fill="currentColor" fill-rule="evenodd" d="m9 7v10h4v-10h-4z" class="ColorScheme-Text" opacity=".4"/><path fill-rule="evenodd" d="m9 7v10h4v-10h-4z" class="ColorScheme-ViewBackground" opacity=".1"/></g><g id="background-horizontal-bottom" transform="matrix(0 .75 -.1 0 39.7 46.25)"><rect width="1" height="4" x="38" y="31" fill="#e4e6e8" opacity=".01" transform="matrix(0 -10 1.3333 0 -32.333 397)"/><path fill="currentColor" fill-rule="evenodd" d="m9 7v10h4v-10h-4z" class="ColorScheme-Text" opacity=".4"/><path fill-rule="evenodd" d="m9 7v10h4v-10h-4z" class="ColorScheme-ViewBackground" opacity=".1"/></g><g id="background-horizontal-center" fill-rule="evenodd" transform="translate(9.35e-7 22)"><rect width="1" height="10" x="38" y="20" fill="currentColor" class="ColorScheme-Text" opacity=".4"/><rect width="1" height="10" x="38" y="20" class="ColorScheme-ViewBackground" opacity=".1"/></g></svg>