<svg xmlns="http://www.w3.org/2000/svg" width="744.09" height="1052.4" version="1.1"><defs><style id="current-color-scheme" type="text/css">.ColorScheme-ButtonFocus{color:#3daee9}</style></defs><rect id="hint-tile-center" width="41.363" height="41.121" x="-233.82" y="467.13" fill="green" opacity=".875"/><g id="south-active-tab-top" transform="translate(236 72)"><rect width="80" height="3" x="40" y="359.36" fill="#ffb86c" class="ColorScheme-ButtonFocus"/></g><g id="south-active-tab-topleft" transform="translate(236 72)"><rect width="10" height="3" x="30" y="359.36" fill="#e4e6e8" opacity=".01"/><rect width="7" height="3" x="33" y="359.36" fill="#ffb86c" class="ColorScheme-ButtonFocus"/></g><g id="south-active-tab-topright" transform="translate(236 72)"><rect width="10" height="3" x="120" y="359.36" fill="#e4e6e8" opacity=".01"/><rect width="7" height="3" x="120" y="359.36" fill="#ffb86c" class="ColorScheme-ButtonFocus"/></g><rect id="south-active-tab-left" width="10" height="12" x="266" y="434.36" opacity="0"/><rect id="south-active-tab-center" width="80" height="12" x="276" y="434.36" opacity="0"/><rect id="south-active-tab-right" width="10" height="12" x="356" y="434.36" opacity="0"/><rect id="south-active-tab-bottomright" width="10" height="2" x="356" y="448.36" opacity="0"/><rect id="south-active-tab-bottom" width="80" height="2" x="276" y="448.36" opacity="0"/><rect id="south-active-tab-bottomleft" width="10" height="2" x="266" y="448.36" opacity="0"/><g fill="#4e9a06"><rect id="south-active-tab-hint-left-margin" width="6" height="5" x="266" y="437.36"/><rect id="south-active-tab-hint-right-margin" width="6" height="5" x="360" y="437.36"/><rect id="south-active-tab-hint-top-margin" width="5" height="8" x="320.24" y="430.36"/><rect id="south-active-tab-hint-bottom-margin" width="5" height="4" x="320.24" y="446.36"/></g><rect id="east-active-tab-bottom" width="10" height="12" x="-366.06" y="408.42" opacity="0" transform="rotate(-90)"/><rect id="east-active-tab-center" width="80" height="12" x="-356.06" y="408.42" opacity="0" transform="rotate(-90)"/><rect id="east-active-tab-top" width="10" height="12" x="-276.06" y="408.42" opacity="0" transform="rotate(-90)"/><rect id="east-active-tab-topright" width="10" height="2" x="-276.06" y="423" opacity="0" transform="rotate(-90)"/><rect id="east-active-tab-right" width="80" height="2" x="-356.06" y="423" opacity="0" transform="rotate(-90)"/><rect id="east-active-tab-bottomright" width="10" height="2" x="-366.06" y="423" opacity="0" transform="rotate(-90)"/><rect id="east-active-tab-hint-bottom-margin" width="6" height="5" x="-366.06" y="411.42" fill="#4e9a06" transform="rotate(-90)"/><rect id="east-active-tab-hint-top-margin" width="6" height="5" x="-272.06" y="411.42" fill="#4e9a06" transform="rotate(-90)"/><g id="east-active-tab-left" transform="matrix(0 1 -1 0 766.78 236.36)"><rect width="80" height="3" x="40" y="359.36" fill="#ffb86c" class="ColorScheme-ButtonFocus"/></g><rect id="east-active-tab-hint-left-margin" width="5" height="8" x="-311.82" y="404.42" fill="#4e9a06" transform="rotate(-90)"/><rect id="east-active-tab-hint-right-margin" width="5" height="4" x="-311.82" y="420.42" fill="#4e9a06" transform="rotate(-90)"/><rect id="west-active-tab-top" width="10" height="12" x="266.36" y="-216" opacity="0" transform="rotate(90)"/><rect id="west-active-tab-center" width="80" height="12" x="276.36" y="-216" opacity="0" transform="rotate(90)"/><rect id="west-active-tab-bottom" width="10" height="12" x="356.36" y="-216" opacity="0" transform="rotate(90)"/><rect id="west-active-tab-bottomleft" width="10" height="2" x="356.36" y="-202" opacity="0" transform="rotate(90)"/><rect id="west-active-tab-left" width="80" height="2" x="276.36" y="-202" opacity="0" transform="rotate(90)"/><rect id="west-active-tab-topleft" width="10" height="2" x="266.36" y="-202" opacity="0" transform="rotate(90)"/><rect id="west-active-tab-hint-top-margin" width="6" height="5" x="266.36" y="-213" fill="#4e9a06" transform="rotate(90)"/><rect id="west-active-tab-hint-bottom-margin" width="6" height="5" x="360.36" y="-213" fill="#4e9a06" transform="rotate(90)"/><g id="west-active-tab-right" fill="#ffb86c" transform="matrix(0 1 -1 0 579.36 236.36)"><rect width="80" height="3" x="40" y="359.36" fill="#ffb86c" class="ColorScheme-ButtonFocus"/></g><g id="west-active-tab-topright" transform="matrix(0 1 -1 0 579.36 236.36)"><rect width="10" height="3" x="30" y="359.36" fill="#e4e6e8" opacity=".01"/><rect width="7" height="3" x="33" y="359.36" fill="#ffb86c" class="ColorScheme-ButtonFocus"/></g><g id="west-active-tab-bottomright" transform="matrix(0 1 -1 0 579.36 236.36)"><rect width="10" height="3" x="120" y="359.36" fill="#e4e6e8" opacity=".01"/><rect width="7" height="3" x="120" y="359.36" fill="#ffb86c" class="ColorScheme-ButtonFocus"/></g><rect id="west-active-tab-hint-right-margin" width="5" height="8" x="320.6" y="-220" fill="#4e9a06" transform="rotate(90)"/><rect id="west-active-tab-hint-left-margin" width="5" height="4" x="320.6" y="-204" fill="#4e9a06" transform="rotate(90)"/><rect id="north-active-tab-right" width="10" height="12" x="-373" y="-226.36" opacity="0" transform="scale(-1)"/><rect id="north-active-tab-center" width="80" height="12" x="-363" y="-226.36" opacity="0" transform="scale(-1)"/><rect id="north-active-tab-left" width="10" height="12" x="-283" y="-226.36" opacity="0" transform="scale(-1)"/><rect id="north-active-tab-topleft" width="10" height="2" x="-283" y="-212.36" opacity="0" transform="scale(-1)"/><rect id="north-active-tab-top" width="80" height="2" x="-363" y="-212.36" opacity="0" transform="scale(-1)"/><rect id="north-active-tab-topright" width="10" height="2" x="-373" y="-212.36" opacity="0" transform="scale(-1)"/><rect id="north-focus-hint-right-margin" width="6" height="5" x="-373" y="-223.36" fill="#4e9a06" transform="scale(-1)"/><rect id="north-focus-hint-left-margin" width="6" height="5" x="-279" y="-223.36" fill="#4e9a06" transform="scale(-1)"/><g id="north-active-tab-bottom" transform="translate(243 -132)"><rect width="80" height="3" x="40" y="359.36" fill="#ffb86c" class="ColorScheme-ButtonFocus"/></g><rect id="north-focus-hint-bottom-margin" width="5" height="8" x="-318.76" y="-230.36" fill="#4e9a06" transform="scale(-1)"/><rect id="north-focus-hint-top-margin" width="5" height="4" x="-318.76" y="-214.36" fill="#4e9a06" transform="scale(-1)"/><g id="north-active-tab-bottomleft" transform="translate(243 -132)"><rect width="10" height="3" x="30" y="359.36" fill="#e4e6e8" opacity=".01"/><rect width="7" height="3" x="33" y="359.36" fill="#ffb86c" class="ColorScheme-ButtonFocus"/></g><g id="north-active-tab-bottomright"><rect width="10" height="3" x="363" y="227.36" fill="#e4e6e8" opacity=".01"/><rect width="10" height="3" x="363" y="227.36" fill="#e4e6e8" opacity=".01"/><rect width="7" height="3" x="363" y="227.36" fill="#ffb86c" class="ColorScheme-ButtonFocus"/></g><g id="east-active-tab-topleft" transform="matrix(0 1 -1 0 766.78 236.36)"><rect width="10" height="3" x="30" y="359.36" fill="#e4e6e8" opacity=".01"/><rect width="7" height="3" x="33" y="359.36" fill="#ffb86c" class="ColorScheme-ButtonFocus"/></g><g id="east-active-tab-bottomleft" transform="matrix(0 1 -1 0 766.78 236.36)"><rect width="10" height="3" x="120" y="359.36" fill="#e4e6e8" opacity=".01"/><rect width="7" height="3" x="120" y="359.36" fill="#ffb86c" class="ColorScheme-ButtonFocus"/></g></svg>