<svg xmlns="http://www.w3.org/2000/svg" xmlns:svg="http://www.w3.org/2000/svg" xmlns:xlink="http://www.w3.org/1999/xlink" id="svg177" width="121" height="56" version="1.1" viewBox="0 0 121 56"><metadata id="metadata181"/><defs id="defs30"><linearGradient id="a"><stop id="stop2" offset="0"/><stop id="stop4" offset="1" stop-opacity="0"/></linearGradient><linearGradient id="q" x1="-912.36" x2="-909.36" y1="-35" y2="-35" gradientUnits="userSpaceOnUse" xlink:href="#a"/><linearGradient id="p" x1="15" x2="12" y1="10" y2="10" gradientUnits="userSpaceOnUse" xlink:href="#a"/><radialGradient id="e" cx="23.7" cy="912.47" r="6" gradientTransform="matrix(4.3054e-7 -.33333 .33333 4.3054e-7 -232.16 14.9)" gradientUnits="userSpaceOnUse" xlink:href="#a"/><linearGradient id="o" x1="16" x2="16" y1="8" y2="5" gradientTransform="translate(58)" gradientUnits="userSpaceOnUse" xlink:href="#a"/><linearGradient id="n" x1="55" x2="58" y1="10" y2="10" gradientUnits="userSpaceOnUse" xlink:href="#a"/><radialGradient id="d" cx="55.393" cy="910.26" r="6" gradientTransform="matrix(.33333 2.4113e-6 -2.4113e-6 .33333 95.538 -296.42)" gradientUnits="userSpaceOnUse"><stop id="stop12" offset="0" stop-opacity=".6"/><stop id="stop14" offset="1" stop-opacity="0"/></radialGradient><linearGradient id="m" x1="53" x2="53" y1="8" y2="5" gradientTransform="translate(58)" gradientUnits="userSpaceOnUse" xlink:href="#a"/><linearGradient id="l" x1="952.36" x2="955.36" y1="-35" y2="-35" gradientUnits="userSpaceOnUse" xlink:href="#a"/><linearGradient id="k" x1="19" x2="19" y1="48" y2="51" gradientTransform="translate(58)" gradientUnits="userSpaceOnUse" xlink:href="#a"/><radialGradient id="c" cx="9.143" cy="948.86" r="6" gradientTransform="matrix(-.33333 -1.5267e-6 1.5267e-6 -.33333 75.046 365.29)" gradientUnits="userSpaceOnUse" xlink:href="#a"/><linearGradient id="j" x1="15" x2="12" y1="46" y2="46" gradientUnits="userSpaceOnUse" xlink:href="#a"/><linearGradient id="i" x1="53" x2="53" y1="48" y2="51" gradientTransform="translate(58)" gradientUnits="userSpaceOnUse" xlink:href="#a"/><radialGradient id="b" cx="55.75" cy="943.61" r="6" gradientTransform="matrix(1.0353e-7 .33333 -.33333 1.0353e-7 428.54 30.417)" gradientUnits="userSpaceOnUse" xlink:href="#a"/><linearGradient id="h" x1="55" x2="58" y1="46" y2="46" gradientUnits="userSpaceOnUse" xlink:href="#a"/><linearGradient id="g" x1="-15" x2="-12" y1="932.36" y2="932.36" gradientUnits="userSpaceOnUse" xlink:href="#a"/><linearGradient id="f" x1="55" x2="58" y1="932.36" y2="932.36" gradientUnits="userSpaceOnUse" xlink:href="#a"/><style id="current-color-scheme" type="text/css">.ColorScheme-Background{color:#eff0f1}</style><style id="style28" type="text/css">.ColorScheme-Background{color:#eff0f1}</style><linearGradient id="linearGradient1364" x1="-916.36" x2="-905.36" y1="-35" y2="-35" gradientUnits="userSpaceOnUse" xlink:href="#a"/><radialGradient id="radialGradient1366" cx="19" cy="12" r="6" fx="19" fy="12" gradientTransform="matrix(2.5e-7,-1.8333333,1.8333333,2.4999999e-7,-3.0000047,46.833331)" gradientUnits="userSpaceOnUse" xlink:href="#a"/><linearGradient id="linearGradient1368" x1="948.36" x2="959.36" y1="-35" y2="-35" gradientUnits="userSpaceOnUse" xlink:href="#a"/><linearGradient id="linearGradient1370" x1="-19" x2="-8" y1="932.36" y2="932.36" gradientUnits="userSpaceOnUse" xlink:href="#a"/><linearGradient id="linearGradient1372" x1="51" x2="62" y1="932.36" y2="932.36" gradientUnits="userSpaceOnUse" xlink:href="#a"/><radialGradient id="radialGradient990" cx="19" cy="12" r="6" fx="19" fy="12" gradientTransform="matrix(2.5e-7,-1.8333333,1.8333333,2.4999999e-7,-3.0000047,46.833331)" gradientUnits="userSpaceOnUse" xlink:href="#a"/><radialGradient id="radialGradient998" cx="19" cy="12" r="6" fx="19" fy="12" gradientTransform="matrix(2.5e-7,-1.8333333,1.8333333,2.4999999e-7,-3.0000047,46.833331)" gradientUnits="userSpaceOnUse" xlink:href="#a"/><radialGradient id="radialGradient1006" cx="19" cy="12" r="6" fx="19" fy="12" gradientTransform="matrix(2.5e-7,-1.8333333,1.8333333,2.4999999e-7,-3.0000047,46.833331)" gradientUnits="userSpaceOnUse" xlink:href="#a"/><radialGradient id="radialGradient1014" cx="19" cy="12" r="6" fx="19" fy="12" gradientTransform="matrix(2.5e-7,-1.8333333,1.8333333,2.4999999e-7,-3.0000047,46.833331)" gradientUnits="userSpaceOnUse" xlink:href="#a"/><radialGradient id="radialGradient1374" cx="77" cy="12" r="6" fx="77" fy="12" gradientTransform="matrix(-3.5113632e-7,-1.8333334,1.8333333,-3.5113629e-7,55.000064,153.16665)" gradientUnits="userSpaceOnUse" xlink:href="#a"/><radialGradient id="radialGradient1029" cx="77" cy="12" r="6" fx="77" fy="12" gradientTransform="matrix(-3.5113632e-7,-1.8333334,1.8333333,-3.5113629e-7,55.000064,153.16665)" gradientUnits="userSpaceOnUse" xlink:href="#a"/><radialGradient id="radialGradient1037" cx="77" cy="12" r="6" fx="77" fy="12" gradientTransform="matrix(-3.5113632e-7,-1.8333334,1.8333333,-3.5113629e-7,55.000064,153.16665)" gradientUnits="userSpaceOnUse" xlink:href="#a"/><radialGradient id="radialGradient1046" cx="77" cy="12" r="6" fx="77" fy="12" gradientTransform="matrix(-3.5113632e-7,-1.8333334,1.8333333,-3.5113629e-7,55.000064,153.16665)" gradientUnits="userSpaceOnUse" xlink:href="#a"/><radialGradient id="radialGradient1054" cx="77" cy="12" r="6" fx="77" fy="12" gradientTransform="matrix(-3.5113632e-7,-1.8333334,1.8333333,-3.5113629e-7,55.000064,153.16665)" gradientUnits="userSpaceOnUse" xlink:href="#a"/><linearGradient id="linearGradient1198" x1="-916.36" x2="-905.36" y1="-35" y2="-35" gradientUnits="userSpaceOnUse" xlink:href="#a"/><radialGradient id="radialGradient1200" cx="19" cy="12" r="6" fx="19" fy="12" gradientTransform="matrix(2.5e-7,-1.8333333,1.8333333,2.4999999e-7,-3.0000047,46.833331)" gradientUnits="userSpaceOnUse" xlink:href="#a"/><linearGradient id="linearGradient1202" x1="948.36" x2="959.36" y1="-35" y2="-35" gradientUnits="userSpaceOnUse" xlink:href="#a"/><linearGradient id="linearGradient1204" x1="-19" x2="-8" y1="932.36" y2="932.36" gradientUnits="userSpaceOnUse" xlink:href="#a"/><linearGradient id="linearGradient1206" x1="51" x2="62" y1="932.36" y2="932.36" gradientUnits="userSpaceOnUse" xlink:href="#a"/><radialGradient id="radialGradient1208" cx="77" cy="12" r="6" fx="77" fy="12" gradientTransform="matrix(-3.5113632e-7,-1.8333334,1.8333333,-3.5113629e-7,55.000064,153.16665)" gradientUnits="userSpaceOnUse" xlink:href="#a"/></defs><rect style="fill:#f60" id="hint-tile-center" width="5" height="5" x="0" y="0"/><g id="top" transform="translate(0,-904.36)"><rect style="color:#eff0f1;opacity:.8;fill:#1e1f29;fill-opacity:1" id="rect42" width="6" height="32" x="-916.36" y="-51" class="ColorScheme-Background" transform="matrix(0,-1,-1,0,0,0)"/><rect style="opacity:0;fill:url(#linearGradient1198)" id="rect44" width="6" height="32" x="-910.36" y="-51" transform="matrix(0,-1,-1,0,0,0)"/></g><g id="topleft" transform="translate(0,-904.36)"><g style="fill-rule:evenodd" id="g53"><path style="opacity:0;fill:url(#radialGradient1200);fill-opacity:1" id="path47" d="m 7,0 v 12 h 6 C 13,8.676 15.676,6 19,6 V 0 Z" transform="translate(0,904.36)"/></g><path style="color:#eff0f1;opacity:.8;fill:#1e1f29;fill-opacity:1" id="path55" d="m 19,6 c -3.324,0 -6,2.676 -6,6 h 4 1 1 V 11 7 Z" transform="translate(0,904.36)"/></g><g id="bottom" transform="translate(0,-904.36)"><rect style="color:#eff0f1;opacity:.8;fill:#1e1f29;fill-opacity:1" id="rect69" width="6" height="32" x="948.36" y="-51" class="ColorScheme-Background" transform="rotate(90)"/><rect style="opacity:0;fill:url(#linearGradient1202)" id="rect71" width="6" height="32" x="954.36" y="-51" transform="rotate(90)"/></g><g id="left" transform="translate(0,-904.36)"><rect style="color:#eff0f1;opacity:.8;fill:#1e1f29;fill-opacity:1" id="rect96" width="6" height="32" x="-19" y="916.36" class="ColorScheme-Background" transform="scale(-1,1)"/><rect style="opacity:0;fill:url(#linearGradient1204)" id="rect98" width="6" height="32" x="-13" y="916.36" transform="scale(-1,1)"/></g><g id="right" transform="translate(0,-904.36)"><rect style="color:#eff0f1;opacity:.8;fill:#1e1f29;fill-opacity:1" id="rect101" width="6" height="32" x="51" y="916.36" class="ColorScheme-Background"/><rect style="opacity:0;fill:url(#linearGradient1206)" id="rect103" width="6" height="32" x="57" y="916.36"/></g><g id="center" transform="translate(0,-904.36)"><rect style="fill:none" id="rect106" width="32" height="32" x="19" y="916.36"/><rect style="color:#eff0f1;opacity:.8;fill:#1e1f29;fill-opacity:1" id="rect108" width="32" height="32" x="19" y="916.36" class="ColorScheme-Background"/></g><rect style="fill:#f0f" id="hint-top-margin" width="4" height="12" x="33" y="0"/><rect style="fill:#f0f" id="hint-bottom-margin" width="4" height="12" x="33" y="44"/><rect style="fill:#f0f" id="hint-right-margin" width="4" height="12" x="26" y="-63" transform="rotate(90)"/><rect style="fill:#f0f" id="hint-left-margin" width="4" height="12" x="26" y="-19" transform="rotate(90)"/><g id="shadow-top" transform="translate(58,-904.36)" style="opacity:1"><rect style="fill:none" id="rect117" width="6" height="32" x="-916.36" y="-51" transform="matrix(0,-1,-1,0,0,0)"/><rect style="opacity:.35;fill:url(#linearGradient1364)" id="rect119" width="6" height="32" x="-910.36" y="-51" transform="matrix(0,-1,-1,0,0,0)"/><rect style="fill:none" id="rect121" width="1" height="32" x="-911.36" y="-51" transform="matrix(0,-1,-1,0,0,0)"/></g><g id="shadow-bottom" transform="translate(58,-904.36)" style="opacity:1"><rect style="fill:none" id="rect158" width="6" height="32" x="948.36" y="-51" transform="rotate(90)"/><rect style="opacity:.35;fill:url(#linearGradient1368)" id="rect160" width="6" height="32" x="954.36" y="-51" transform="rotate(90)"/><rect style="fill:none" id="rect162" width="1" height="32" x="953.36" y="-51" transform="rotate(90)"/></g><g id="shadow-left" transform="translate(58,-904.36)" style="opacity:1"><rect style="fill:none" id="rect199" width="6" height="32" x="-19" y="916.36" transform="scale(-1,1)"/><rect style="opacity:.35;fill:url(#linearGradient1370)" id="rect201" width="6" height="32" x="-13" y="916.36" transform="scale(-1,1)"/><rect style="fill:none" id="rect203" width="1" height="32" x="-14" y="916.36" transform="scale(-1,1)"/></g><g id="shadow-right" transform="translate(58,-904.36)" style="opacity:1"><rect style="fill:none" id="rect206" width="6" height="32" x="51" y="916.36"/><rect style="opacity:.35;fill:url(#linearGradient1372)" id="rect208" width="6" height="32" x="57" y="916.36"/><rect style="fill:none" id="rect210" width="1" height="32" x="56" y="916.36"/></g><g style="opacity:0;fill:none" id="shadow-center" transform="translate(58,-904.36)"><rect id="rect213" width="32" height="32" x="19" y="916.36"/><rect id="rect215" width="32" height="32" x="19" y="916.36"/></g><rect style="fill:#f0f" id="shadow-hint-top-margin" width="4" height="12" x="91" y="0"/><rect style="fill:#f0f" id="shadow-hint-bottom-margin" width="4" height="12" x="91" y="44"/><rect style="fill:#f0f" id="shadow-hint-right-margin" width="4" height="12" x="26" y="-121" transform="rotate(90)"/><rect style="fill:#f0f" id="shadow-hint-left-margin" width="4" height="12" x="26" y="-77" transform="rotate(90)"/><use id="topright" width="100%" height="100%" x="0" y="0" transform="matrix(-1,0,0,1,70,0)" xlink:href="#topleft"/><use id="bottomleft" width="100%" height="100%" x="0" y="0" transform="rotate(-90,35,28)" xlink:href="#topleft"/><use id="bottomright" width="100%" height="100%" x="0" y="0" transform="rotate(-180,35,28)" xlink:href="#topleft"/><g id="shadow-topleft" transform="translate(58,-904.36218)" style="opacity:1"><path style="opacity:.35;fill:url(#radialGradient1208);fill-opacity:1;fill-rule:evenodd;stroke:none;stroke-width:1px;stroke-linecap:butt;stroke-linejoin:miter;stroke-opacity:1" id="path4828" d="m 65,0 v 12 h 6 C 71,8.6760127 73.676013,6 77,6 V 0 Z" transform="translate(-58,904.36218)"/><rect id="rect4834" width="6" height="6" x="-19" y="910.362" ry="1" transform="scale(-1,1)" style="fill:none;fill-opacity:1"/><rect id="rect4836" width="2" height="6" x="-19" y="910.362" ry="0" transform="scale(-1,1)" style="fill:none;fill-opacity:1"/><rect id="rect4838" width="5" height="2" x="-18" y="914.362" transform="scale(-1,1)" style="fill:none;fill-opacity:1"/></g><use id="use1035" width="100%" height="100%" x="0" y="0" transform="rotate(90,93.000016,27.99998)" xlink:href="#shadow-topleft" style="opacity:1"/><use id="shadow-bottomleft" width="100%" height="100%" x="0" y="0" transform="matrix(1,0,0,-1,-7e-6,55.99992)" xlink:href="#shadow-topleft" style="opacity:1"/><use id="shadow-bottomright" width="100%" height="100%" x="0" y="0" transform="rotate(-180,93.000005,27.999982)" xlink:href="#shadow-topleft" style="opacity:1"/></svg>