<svg xmlns="http://www.w3.org/2000/svg" xmlns:svg="http://www.w3.org/2000/svg" id="svg62" width="22" height="22" enable-background="new" version="1.1"><metadata id="metadata66"/><defs id="defs3"><style id="current-color-scheme" type="text/css"/></defs><g id="16-16-audio-volume-high" transform="translate(-262 446.63)"><rect id="rect5" width="16" height="16" x="265" y="-413" fill="none" color="#bebebe" opacity=".1"/><path id="path7" fill="#eaeaea" d="m112.04 192.96-4.043 4.0449h-3.002v6h3.0898l3.9551 3.9551zm2 0v1.5c2.32 0.74 4 2.93 4 5.5s-1.68 4.76-4 5.5v1.5c3.15-0.78 5.5-3.6 5.5-7s-2.35-6.22-5.5-7zm0 4v6c1.06-0.58 1.791-1.7 1.791-3s-0.72102-2.42-1.791-3z" transform="translate(160.95 -604.96)"/></g><g id="audio-volume-high" transform="translate(0,29)"><g id="g18" fill="#dedede" transform="translate(-.5 -6.999)"><path style="paint-order:normal" id="path10" d="m4.2778-14 4.4444-3c0.84454-0.57006 1.7778 0.892 1.7778 2v8c0 1.108-0.93324 2.5701-1.7778 2l-4.4444-3c-0.84454-0.57006-1.7778-0.892-1.7778-2v-2c0-1.108 0.93324-1.4299 1.7778-2z"/><path style="paint-order:normal" id="path12" d="m13.326-15.141-1.6582 1.0352c-0.0048 0.01377-0.01302 0.02515-0.01758 0.03906a6 6 0 0 1 0.84961 3.0664 6 6 0 0 1-0.84961 3.0645c0.0047 0.0145 0.01262 0.026669 0.01758 0.041016l1.6602 1.0371a8 8 0 0 0 1.1719-4.1426 8 8 0 0 0-1.1738-4.1406z"/><path style="paint-order:normal" id="path14" d="m15.869-16.73-1.6953 1.0605a9 9 0 0 1 1.3262 4.6699 9 9 0 0 1-1.3281 4.6699l1.6914 1.0566a11 11 0 0 0 1.6367-5.7266 11 11 0 0 0-1.6309-5.7305z"/><path style="paint-order:normal" id="path16" d="m18.41-18.318-1.6992 1.0625a12 12 0 0 1 1.7891 6.2559 12 12 0 0 1-1.7812 6.2617l1.6875 1.0547a14 14 0 0 0 2.0938-7.3164 14 14 0 0 0-2.0898-7.3184z"/></g><rect style="paint-order:normal" id="rect20" width="22" height="22" y="-29" fill="none" ry="0"/></g><g id="audio-volume-medium" transform="translate(22.174 29)"><g id="g31" fill="#dedede" transform="translate(-.5 -6.999)"><path style="paint-order:normal" id="path23" d="m4.2778-14 4.4444-3c0.84454-0.57006 1.7778 0.892 1.7778 2v8c0 1.108-0.93324 2.5701-1.7778 2l-4.4444-3c-0.84454-0.57006-1.7778-0.892-1.7778-2v-2c0-1.108 0.93324-1.4299 1.7778-2z"/><path style="paint-order:normal" id="path25" d="m13.326-15.141-1.6582 1.0352c-0.0048 0.01377-0.01302 0.02515-0.01758 0.03906a6 6 0 0 1 0.84961 3.0664 6 6 0 0 1-0.84961 3.0645c0.0047 0.0145 0.01262 0.026669 0.01758 0.041016l1.6602 1.0371a8 8 0 0 0 1.1719-4.1426 8 8 0 0 0-1.1738-4.1406z"/><path style="paint-order:normal" id="path27" d="m15.869-16.73-1.6953 1.0605a9 9 0 0 1 1.3262 4.6699 9 9 0 0 1-1.3281 4.6699l1.6914 1.0566a11 11 0 0 0 1.6367-5.7266 11 11 0 0 0-1.6309-5.7305z"/><path style="paint-order:normal" id="path29" d="m18.41-18.318-1.6992 1.0625a12 12 0 0 1 1.7891 6.2559 12 12 0 0 1-1.7812 6.2617l1.6875 1.0547a14 14 0 0 0 2.0938-7.3164 14 14 0 0 0-2.0898-7.3184z" opacity=".35"/></g><rect style="paint-order:normal" id="rect33" width="22" height="22" y="-29" fill="none" ry="0"/></g><g id="audio-volume-low" transform="translate(46 28.999)"><g id="g44" fill="#dedede" transform="translate(-.5 -6.999)"><path style="paint-order:normal" id="path36" d="m4.2778-14 4.4444-3c0.84454-0.57006 1.7778 0.892 1.7778 2v8c0 1.108-0.93324 2.5701-1.7778 2l-4.4444-3c-0.84454-0.57006-1.7778-0.892-1.7778-2v-2c0-1.108 0.93324-1.4299 1.7778-2z"/><path style="paint-order:normal" id="path38" d="m13.326-15.141-1.6582 1.0352c-0.0048 0.01377-0.01302 0.02515-0.01758 0.03906a6 6 0 0 1 0.84961 3.0664 6 6 0 0 1-0.84961 3.0645c0.0047 0.0145 0.01262 0.026669 0.01758 0.041016l1.6602 1.0371a8 8 0 0 0 1.1719-4.1426 8 8 0 0 0-1.1738-4.1406z"/><path style="paint-order:normal" id="path40" d="m15.869-16.73-1.6953 1.0605a9 9 0 0 1 1.3262 4.6699 9 9 0 0 1-1.3281 4.6699l1.6914 1.0566a11 11 0 0 0 1.6367-5.7266 11 11 0 0 0-1.6309-5.7305z" opacity=".35"/><path style="paint-order:normal" id="path42" d="m18.41-18.318-1.6992 1.0625a12 12 0 0 1 1.7891 6.2559 12 12 0 0 1-1.7812 6.2617l1.6875 1.0547a14 14 0 0 0 2.0938-7.3164 14 14 0 0 0-2.0898-7.3184z" opacity=".35"/></g><rect style="paint-order:normal" id="rect46" width="22" height="22" y="-29" fill="none" ry="0"/></g><g id="audio-volume-muted" opacity=".35" transform="translate(-24 28.999)"><g id="g57" fill="#dedede" transform="translate(-.5 -6.999)"><path style="paint-order:normal" id="path49" d="m4.2778-14 4.4444-3c0.84454-0.57006 1.7778 0.892 1.7778 2v8c0 1.108-0.93324 2.5701-1.7778 2l-4.4444-3c-0.84454-0.57006-1.7778-0.892-1.7778-2v-2c0-1.108 0.93324-1.4299 1.7778-2z" opacity="1"/><path style="paint-order:normal" id="path51" d="m13.326-15.141-1.6582 1.0352c-0.0048 0.01377-0.01302 0.02515-0.01758 0.03906a6 6 0 0 1 0.84961 3.0664 6 6 0 0 1-0.84961 3.0645c0.0047 0.0145 0.01262 0.026669 0.01758 0.041016l1.6602 1.0371a8 8 0 0 0 1.1719-4.1426 8 8 0 0 0-1.1738-4.1406z" opacity="1"/><path style="paint-order:normal" id="path53" d="m15.869-16.73-1.6953 1.0605a9 9 0 0 1 1.3262 4.6699 9 9 0 0 1-1.3281 4.6699l1.6914 1.0566a11 11 0 0 0 1.6367-5.7266 11 11 0 0 0-1.6309-5.7305z" opacity="1"/><path style="paint-order:normal" id="path55" d="m18.41-18.318-1.6992 1.0625a12 12 0 0 1 1.7891 6.2559 12 12 0 0 1-1.7812 6.2617l1.6875 1.0547a14 14 0 0 0 2.0938-7.3164 14 14 0 0 0-2.0898-7.3184z" opacity="1"/></g><rect style="paint-order:normal" id="rect59" width="22" height="22" y="-29" fill="none" opacity="1" ry="0"/></g></svg>