<svg xmlns="http://www.w3.org/2000/svg" xmlns:svg="http://www.w3.org/2000/svg" id="svg7229" width="22" height="22" version="1" viewBox="0 0 22 22"><metadata id="metadata121"/><defs id="defs8"><style id="current-color-scheme" type="text/css"/></defs><g id="Unavailable" transform="translate(-96.41 -277.67)"><path id="rect4480" fill="none" d="m118.54 428.5h32v32h-32z"/><g id="g4580"><rect style="fill:#ffb86c" id="rect4577" width="10" height="10" x="128.54" y="439.5" rx="5" ry="5"/><path id="rect4622-0" fill="#fff" d="m136.36 442.38-0.70699-0.707-2.1213 2.1213-2.1213-2.1213-0.70711 0.70711 2.1214 2.1212-2.1214 2.1214 0.70711 0.70711 2.1213-2.1216 2.1213 2.1216 0.70711-0.70711-2.1214-2.1214z" class="ColorScheme-Background" color="#eff0f1"/></g></g><g id="22-22-Fill100" transform="matrix(3.7795,0,0,3.7795,-215,-202.52)"><rect style="opacity:0;stroke-width:.17910001" id="rect203" width="5.821" height="5.821" x="64.823" y="53.583"/><g style="fill:#e6e6e6" id="g211"><path style="stroke-width:1.24039996" id="rect209" d="m 65.882,55.436 h 3.4396 c 0.14659,0 0.2646,0.11806 0.2646,0.26471 v 1.5873 c 0,0.14665 -0.11801,0.26471 -0.2646,0.26471 H 65.882 c -0.14659,0 -0.2646,-0.11806 -0.2646,-0.26471 v -1.5873 c 0,-0.14665 0.11801,-0.26471 0.2646,-0.26471 z"/></g></g><g id="22-22-Unavailable" transform="rotate(90,354.52,124.98)"><path id="rect4614" fill="none" d="m258.54 426.5h22v22h-22z"/><g id="g4631"><rect style="fill:#ffb86c" id="rect4577-9-1" width="8" height="8" x="265.54" y="434.5" rx="4" ry="4"/><path id="rect4622" fill="currentColor" d="m271.66 437.09-0.70699-0.707-1.4143 1.4143-1.4143-1.4143-0.70699 0.707 1.4143 1.4143-1.4143 1.4141 0.70699 0.707 1.4143-1.4141 1.4142 1.4142 0.707-0.70699-1.4142-1.4142z" class="ColorScheme-Background" color="#eff0f1"/></g></g><g id="Battery" transform="translate(5.6221e-4)"><path style="fill:#dedede" id="rect1207" d="m 10,115 v 6 h 1 c 0.554,0 1,-0.446 1,-1 v -4 c 0,-0.554 -0.446,-1 -1,-1 z"/><path style="fill:#dedede;stroke-width:.99997997" id="rect1200" d="m -13,111 c -1.108,0 -1.9999,0.892 -1.9999,2 v 10 c 0,1.108 0.89197,2 1.9999,2 H 6.999 c 1.108,0 1.9999,-0.892 1.9999,-2 v -10 c 0,-1.108 -0.89197,-2 -1.9999,-2 z m 0,1 H 6.999 c 0.55398,0 0.99997,0.446 0.99997,1 v 10 c 0,0.554 -0.44599,1 -0.99997,1 H -13 c -0.55398,0 -0.99997,-0.446 -0.99997,-1 v -10 c 0,-0.554 0.44599,-1 0.99997,-1 z"/><rect style="opacity:0;stroke-width:.98460001" id="rect1184" width="31.999" height="32" x="-18" y="102"/></g><g id="Fill100" transform="translate(-3,-1)"><rect style="opacity:0;stroke-width:.98460001" id="rect1222" width="31.999" height="32" x="31" y="102"/><path style="fill:#dedede" id="rect1218" d="m 37,113 h 17.999 c 0.55398,0 0.99997,0.446 0.99997,1 v 8 c 0,0.554 -0.44599,1 -0.99997,1 H 37 c -0.55398,0 -0.99997,-0.446 -0.99997,-1 v -8 c 0,-0.554 0.44599,-1 0.99997,-1 z"/></g><g id="22-22-Battery"><rect id="rect60" width="22" height="22" x="-.001" y="-.003" stroke-width=".677" opacity="0"/><path id="path62" fill="#e6e6e6" stroke-width="3.78" d="m2.998 4.998c-1.108-1.13e-5 -2 0.892-2 2v8c0 1.108 0.892 2 2 2h15c1.108 1.1e-5 2-0.892 2-2v-8c0-1.108-0.892-2-2-2zm0.0019531 1.002h15c0.554 0 1 0.446 1 1v8c0 0.554-0.446 1-1 1h-15c-0.554 0-1-0.446-1-1v-8c0-0.554 0.446-1 1-1z"/><path id="rect1009" fill="#e6e6e6" stroke-width=".817" d="m21.5 9c0.277 0 0.5 0.14867 0.5 0.33333v3.3333c0 0.18467-0.223 0.33333-0.5 0.33333s-0.5-0.14867-0.5-0.33333v-3.3333c0-0.18467 0.223-0.33333 0.5-0.33333z"/></g><g id="22-22-Fill90" transform="matrix(3.7795 0 0 3.7795 -180 -202.52)"><rect id="rect1079" width="5.821" height="5.821" x="64.823" y="53.583" stroke-width=".179" opacity="0"/><g id="g1083" fill="#e6e6e6"><path id="path1081" stroke-width="1.24" d="m65.882 55.436h3.175v2.1167h-3.175c-0.14659 0-0.2646-0.11806-0.2646-0.26471v-1.5873c0-0.14665 0.11801-0.26471 0.2646-0.26471z"/></g></g><g id="22-22-Fill80" transform="matrix(3.7795 0 0 3.7795 -150 -202.52)"><rect id="rect1087" width="5.821" height="5.821" x="64.823" y="53.583" stroke-width=".179" opacity="0"/><g id="g1091" fill="#e6e6e6"><path id="path1089" stroke-width="1.24" d="m65.882 55.436h2.6459l0.26459 2.1167h-2.9104c-0.14659 0-0.2646-0.11806-0.2646-0.26471v-1.5873c0-0.14665 0.11801-0.26471 0.2646-0.26471z"/></g></g><g id="22-22-Fill70" transform="matrix(3.7795 0 0 3.7795 -120 -202.52)"><rect id="rect1095" width="5.821" height="5.821" x="64.823" y="53.583" stroke-width=".179" opacity="0"/><g id="g1099" fill="#e6e6e6"><path id="path1097" stroke-width="1.24" d="m65.882 55.436h2.3813v2.1167l-2.3813-1e-6c-0.14659 0-0.2646-0.11806-0.2646-0.26471v-1.5873c0-0.14665 0.11801-0.26471 0.2646-0.26471z"/></g></g><g id="22-22-Fill60" transform="matrix(3.7795 0 0 3.7795 -89.999 -202.52)"><rect id="rect1103" width="5.821" height="5.821" x="64.823" y="53.583" stroke-width=".179" opacity="0"/><g id="g1107" fill="#e6e6e6"><path id="path1105" stroke-width="1.24" d="m65.881 55.436h1.8513l0.26534 2.1167h-2.1167c-0.14659 0-0.2646-0.11806-0.2646-0.26471v-1.5873c0-0.14665 0.11801-0.26471 0.2646-0.26471z"/></g></g><g id="22-22-Fill50" transform="matrix(3.7795 0 0 3.7795 -54 -202.52)"><rect id="rect1111" width="5.821" height="5.821" x="64.823" y="53.583" stroke-width=".179" opacity="0"/><g id="g1115" fill="#e6e6e6"><path id="path1113" stroke-width="1.24" d="m65.882 55.436h1.5875v2.1167h-1.5875c-0.14659 0-0.2646-0.11806-0.2646-0.26471v-1.5873c0-0.14665 0.11801-0.26471 0.2646-0.26471z"/></g></g><g id="22-22-Fill40" transform="matrix(3.7795 0 0 3.7795 -24.999 -202.52)"><rect id="rect1119" width="5.821" height="5.821" x="64.823" y="53.583" stroke-width=".179" opacity="0"/><g id="g1123" fill="#e6e6e6"><path id="path1121" stroke-width="1.24" d="m65.882 55.436 1.0575-0.0016 0.26497 2.1175-1.3225 8.07e-4c-0.14659 8.9e-5 -0.2646-0.11806-0.2646-0.26471v-1.5873c0-0.14665 0.11801-0.26471 0.2646-0.26471z"/></g></g><g id="22-22-Fill30" transform="matrix(3.7795 0 0 3.7795 5.9999 -202.52)"><rect id="rect1127" width="5.821" height="5.821" x="64.823" y="53.583" stroke-width=".179" opacity="0"/><g id="g1131" fill="#e6e6e6"><path id="path1129" stroke-width="1.24" d="m65.882 55.436 0.79376-8.07e-4 7.97e-4 2.1175-0.79455 2.6e-5c-0.14659 5e-6 -0.2646-0.11806-0.2646-0.26471v-1.5873c0-0.14665 0.11801-0.26471 0.2646-0.26471z"/></g></g><g id="22-22-Fill20" transform="matrix(3.7795 0 0 3.7795 37.997 -202.52)"><rect id="rect1135" width="5.821" height="5.821" x="64.823" y="53.583" stroke-width=".179" opacity="0"/><g id="g1139" fill="#e6e6e6"><path style="fill:#ffb86c;stroke-width:1.24039996" id="path1137" d="m 65.882,55.436 0.26538,-8.07e-4 0.26458,2.1175 -0.52997,2.6e-5 c -0.14659,7e-6 -0.2646,-0.11806 -0.2646,-0.26471 v -1.5873 c 0,-0.14665 0.11801,-0.26471 0.2646,-0.26471 z"/></g></g><g id="22-22-Fill10" transform="matrix(3.7795 0 0 3.7795 69.997 -202.52)"><rect id="rect1143" width="5.821" height="5.821" x="64.823" y="53.583" stroke-width=".179" opacity="0"/><g style="fill:#ffb86c" id="g1147"><path style="fill:#ffb86c;stroke-width:1.24039996" id="path1145" d="m 65.882,55.436 v 2.1167 c -0.14659,4.53e-4 -0.2646,-0.11806 -0.2646,-0.26471 v -1.5873 c 0,-0.14665 0.11801,-0.26471 0.2646,-0.26471 z"/></g></g><g id="22-22-Fill0" transform="translate(344 -.99971)"><rect id="rect1151" width="22" height="22" x="-.001" y="-.003" stroke-width=".677" opacity="0"/><path style="fill:#d95252;stroke-width:3.77950001" id="path1153" d="m 2.998,4.998 c -1.108,-1.13e-5 -2,0.892 -2,2 v 8 c 0,1.108 0.892,2 2,2 h 15 c 1.108,1.1e-5 2,-0.892 2,-2 v -8 c 0,-1.108 -0.892,-2 -2,-2 z M 2.9999531,6 H 17.999953 c 0.554,0 1,0.446 1,1 v 8 c 0,0.554 -0.446,1 -1,1 H 2.9999531 c -0.554,0 -1,-0.446 -1,-1 V 7 c 0,-0.554 0.446,-1 1,-1 z"/><path style="fill:#ffb86c;stroke-width:.81655997" id="path1155" d="m 21.5,8.9997 c 0.277,0 0.5,0.14869 0.5,0.33338 v 3.3338 c 0,0.18469 -0.223,0.33338 -0.5,0.33338 -0.277,0 -0.5,-0.14869 -0.5,-0.33338 V 9.33308 C 21,9.14839 21.223,8.9997 21.5,8.9997 Z"/></g><g id="22-22-battery-ups" transform="translate(-34)"><rect style="opacity:0;stroke-width:.67690998" id="rect1159" width="22" height="22" x="99" y="29"/><path style="fill:#8be9fd;stroke-width:3.77950001" id="path1161" d="m 102,34.001 c -1.108,-1.1e-5 -2,0.892 -2,2 v 8 c 0,1.108 0.892,2 2,2 h 15 c 1.108,1.1e-5 2,-0.892 2,-2 v -8 c 0,-1.108 -0.89201,-2 -2,-2 z m 0.002,1.002 h 15 c 0.554,0 1,0.446 1,1 v 8 c 0,0.554 -0.446,1 -1,1 h -15 c -0.554,0 -1,-0.446 -1,-1 v -8 c 0,-0.554 0.446,-1 1,-1 z"/><path style="fill:#8be9fd;stroke-width:.81711" id="path1163" d="m 120.5,38 c 0.277,0 0.5,0.14889 0.5,0.33383 v 3.3383 c 0,0.18494 -0.223,0.33383 -0.5,0.33383 -0.277,0 -0.5,-0.14889 -0.5,-0.33383 v -3.3383 C 120,38.14889 120.223,38 120.5,38 Z"/><g style="fill:#e6e6e6" id="g1171" transform="matrix(3.7795,0,0,3.7795,-146,-173.52)"><path style="fill:#8be9fd;stroke-width:4.68790007" id="path1169" d="m 103,36 c -0.55404,0 -1,0.44575 -1,1 v 6 c 0,0.55426 0.44596,1 1,1 h 13 c 0.55404,0 1,-0.44574 1,-1 v -6 c 0,-0.55425 -0.44596,-1 -1,-1 z m 8,1 v 1 h 2 v 1 h -2 v 2 h 2 v 1 h -2 v 1 a 3,3 0 0 1 -2.8242,-2 H 107 v -2 h 1.1738 A 3,3 0 0 1 111,37 Z" transform="matrix(0.26459,0,0,0.26459,38.629,45.911)"/></g></g><g id="Fill90" transform="translate(46.999 -1)"><rect id="rect1239" width="31.999" height="32" x="31" y="102" stroke-width=".985" opacity="0"/><path id="path1241" fill="#dedede" d="m37.001 113h16.999v10h-16.999c-0.55398 0-0.99997-0.446-0.99997-1v-8c0-0.554 0.44599-1 0.99997-1z"/></g><g id="Fill80" transform="translate(86.999 -1)"><rect id="rect1245" width="31.999" height="32" x="31" y="102" stroke-width=".985" opacity="0"/><path id="path1247" fill="#dedede" d="m37.001 113h14l0.99994 10h-15c-0.55397 0-0.99994-0.446-0.99994-1v-8c0-0.554 0.44597-1 0.99994-1z"/></g><g id="Fill70" transform="translate(127 -1)"><rect id="rect1251" width="31.999" height="32" x="31" y="102" stroke-width=".985" opacity="0"/><path id="path1253" fill="#dedede" d="m37 113h13l-5e-4 10h-13c-0.554 0-1-0.446-1-1v-8c0-0.554 0.446-1 1-1z"/></g><g id="Fill60" transform="translate(169 -1)"><rect id="rect1257" width="31.999" height="32" x="31" y="102" stroke-width=".985" opacity="0"/><path id="path1259" fill="#dedede" d="m37 113h10l0.99994 10h-11c-0.55397 0-0.99994-0.446-0.99994-1v-8c0-0.554 0.44597-1 0.99994-1z"/></g><g id="Fill50" transform="translate(208 -1)"><rect id="rect1264" width="31.999" height="32" x="31" y="102" stroke-width=".985" opacity="0"/><path id="path1266" fill="#dedede" d="m37 113h8.9997l-5e-4 10h-8.9992c-0.554 0-1-0.446-1-1v-8c0-0.554 0.446-1 1-1z"/></g><g id="Fill40" transform="translate(244 -1)"><rect id="rect1270" width="31.999" height="32" x="31" y="102" stroke-width=".985" opacity="0"/><path id="path1272" fill="#dedede" d="m37 113h5.9998l0.99994 10h-6.9997c-0.55397 0-0.99994-0.446-0.99994-1v-8c0-0.554 0.44597-1 0.99994-1z"/></g><g id="Fill30" transform="translate(283 -1)"><rect id="rect1282" width="31.999" height="32" x="31" y="102" stroke-width=".985" opacity="0"/><path id="path1284" fill="#dedede" d="m37 113h4.9998l-5e-4 10h-4.9993c-0.554 0-1-0.446-1-1v-8c0-0.554 0.446-1 1-1z"/></g><g id="Fill20" transform="translate(320 -1)"><rect id="rect1288" width="31.999" height="32" x="31" y="102" stroke-width=".985" opacity="0"/><path style="fill:#ffb86c" id="path1290" d="m 37,113 h 1.9999 l 0.99994,10 h -2.9998 c -0.55397,0 -0.99994,-0.446 -0.99994,-1 v -8 c 0,-0.554 0.44597,-1 0.99994,-1 z"/></g><g id="Fill10" transform="translate(356 -1)"><rect id="rect1300" width="31.999" height="32" x="31" y="102" stroke-width=".985" opacity="0"/><path style="fill:#ffb86c" id="path1302" d="m 37,113 h 0.99947 l -5e-4,10 H 37 c -0.554,0 -1,-0.446 -1,-1 v -8 c 0,-0.554 0.446,-1 1,-1 z"/></g><g id="Fill0" transform="translate(445 -3)"><path style="fill:#ffb86c" id="path1306" d="m 10,115 v 6 h 1 c 0.554,0 1,-0.446 1,-1 v -4 c 0,-0.554 -0.446,-1 -1,-1 z"/><path style="fill:#ffb86c;stroke-width:.99997997" id="path1308" d="m -13,111 c -1.108,0 -1.9999,0.892 -1.9999,2 v 10 c 0,1.108 0.89197,2 1.9999,2 H 6.999 c 1.108,0 1.9999,-0.892 1.9999,-2 v -10 c 0,-1.108 -0.89197,-2 -1.9999,-2 z m 0,1 H 6.999 c 0.55398,0 0.99997,0.446 0.99997,1 v 10 c 0,0.554 -0.44599,1 -0.99997,1 H -13 c -0.55398,0 -0.99997,-0.446 -0.99997,-1 v -10 c 0,-0.554 0.44599,-1 0.99997,-1 z"/><rect id="rect1310" width="31.999" height="32" x="-18" y="102" stroke-width=".985" opacity="0"/></g><g id="battery-ups" transform="translate(1,4)"><path style="fill:#8be9fd" id="path1314" d="m 139,161 v 6 h 1 c 0.55402,0 1,-0.446 1,-1 v -4 c 0,-0.554 -0.44601,-1 -1,-1 z"/><path style="fill:#8be9fd" id="path1316" d="m 116,157 c -1.108,0 -2,0.892 -2,2 v 10 c 0,1.108 0.892,2 2,2 h 20 c 1.108,0 2,-0.892 2,-2 v -10 c 0,-1.108 -0.892,-2 -2,-2 z m 0,1 h 20 c 0.554,0 1,0.446 1,1 v 10 c 0,0.554 -0.446,1 -1,1 h -20 c -0.554,0 -1,-0.446 -1,-1 v -10 c 0,-0.554 0.446,-1 1,-1 z"/><rect style="opacity:0;stroke-width:.98461998" id="rect1318" width="32" height="32" x="111" y="148"/><path style="fill:#8be9fd" id="path1327" d="m 117,159 c -0.554,0 -1,0.446 -1,1 v 8 c 0,0.554 0.446,1 1,1 h 18 c 0.554,0 1,-0.446 1,-1 v -8 c 0,-0.554 -0.446,-1 -1,-1 z m 10,2 v 1 h 2 v 1 h -2 v 2 h 2 v 1 h -2 v 1 a 3,3 0 0 1 -2.8242,-2 H 123 v -2 h 1.1738 A 3,3 0 0 1 127,161 Z"/></g><g id="22-22-AcAdapter" transform="translate(-100.5,4)"><rect id="rect938" width="22" height="22" x="98.499" y="28.999" style="opacity:0;stroke-width:.67690998"/><path id="path940" d="m 102,34.001 c -1.108,-1.1e-5 -2,0.892 -2,2 v 8 c 0,1.108 0.892,2 2,2 h 15 c 1.108,1.1e-5 2,-0.892 2,-2 v -8 c 0,-1.108 -0.89201,-2 -2,-2 z m 0.002,1.002 h 15 c 0.554,0 1,0.446 1,1 v 8 c 0,0.554 -0.446,1 -1,1 h -15 c -0.554,0 -1,-0.446 -1,-1 v -8 c 0,-0.554 0.446,-1 1,-1 z" style="fill:#8be9fd;stroke-width:3.77950001"/><g id="g143" transform="matrix(3.7795,0,0,3.7795,-146.49952,-173.51783)"><g id="g141" transform="translate(0.13159945,-9.6038459e-4)" style="opacity:.33000004;fill:#8be9fd;fill-opacity:1"><path id="path139" d="m 65.882,55.436 h 3.4396 c 0.14659,0 0.2646,0.11806 0.2646,0.26471 v 1.5873 c 0,0.14665 -0.11801,0.26471 -0.2646,0.26471 H 65.882 c -0.14659,0 -0.2646,-0.11806 -0.2646,-0.26471 v -1.5873 c 0,-0.14665 0.11801,-0.26471 0.2646,-0.26471 z" style="fill:#8be9fd;fill-opacity:1;stroke-width:1.24039996"/></g></g><path id="path942" d="m 120.5,38 c 0.277,0 0.5,0.14889 0.5,0.33383 v 3.3383 c 0,0.18494 -0.223,0.33383 -0.5,0.33383 -0.277,0 -0.5,-0.14889 -0.5,-0.33383 v -3.3383 C 120,38.14889 120.223,38 120.5,38 Z" style="fill:#8be9fd;stroke-width:.81711"/></g><g id="AcAdapter" transform="translate(-129,6)"><path id="path952" d="m 139,161 v 6 h 1 c 0.55402,0 1,-0.446 1,-1 v -4 c 0,-0.554 -0.44601,-1 -1,-1 z" style="fill:#8be9fd"/><path id="path954" d="m 116,157 c -1.108,0 -2,0.892 -2,2 v 10 c 0,1.108 0.892,2 2,2 h 20 c 1.108,0 2,-0.892 2,-2 v -10 c 0,-1.108 -0.892,-2 -2,-2 z m 0,1 h 20 c 0.554,0 1,0.446 1,1 v 10 c 0,0.554 -0.446,1 -1,1 h -20 c -0.554,0 -1,-0.446 -1,-1 v -10 c 0,-0.554 0.446,-1 1,-1 z" style="fill:#8be9fd"/><path id="path956" d="m 117.0005,159 h 17.999 c 0.55398,0 0.99997,0.446 0.99997,1 v 8 c 0,0.554 -0.44599,1 -0.99997,1 h -17.999 c -0.55398,0 -0.99997,-0.446 -0.99997,-1 v -8 c 0,-0.554 0.44599,-1 0.99997,-1 z" style="opacity:.33000004;fill:#8be9fd;fill-opacity:1"/><rect id="rect956" width="32" height="32" x="111" y="148" style="opacity:0;stroke-width:.98461998"/></g></svg>