<svg xmlns="http://www.w3.org/2000/svg" id="svg" version="1.1" viewBox="0 0 22 22"><defs id="defs3"><style id="current-color-scheme" type="text/css">.ColorScheme-Text{color:#dedede}</style></defs><g id="22-22-device-notifier"><rect id="rect12" width="22" height="22" fill-opacity="0" class="ColorScheme-Text" color="#dedede"/><rect id="rect14" width="22" height="22" opacity="0"/><rect id="rect16" width="22" height="22" fill-opacity="0" class="ColorScheme-Text" color="#dedede"/><path id="rect849" fill="#dedede" d="m10 2c-2.77 0-5 2.23-5 5v3 6h12v-6-3c0-2.77-2.23-5-5-5h-2zm1 1a1 1 0 0 1 1 1 1 1 0 0 1-1 1 1 1 0 0 1-1-1 1 1 0 0 1 1-1z"/><path id="path20" fill="currentColor" stroke-width="1.414" d="m7 17v3h8v-3h-8zm1 1h2v1h-2v-1zm4 0h2v1h-2v-1z" color="#dedede" enable-background="new" filter="url(#filter7554)"/><circle id="path860" cx="11" cy="4" r="1" fill="#dedede" opacity=".5"/></g><g id="16-16-device-notifier"><rect id="rect5" width="16" height="16" x="0" y="25.993" opacity="0"/><rect id="rect7" width="16" height="16" x="0" y="25.993" fill-opacity="0" class="ColorScheme-Text" color="#dedede"/><path id="path9" fill="currentColor" d="m5 38.994v1.999h6v-1.999z" class="ColorScheme-Text" color="#dedede" enable-background="new" filter="url(#filter7554)"/><path id="rect853" fill="#dedede" d="m6 27c-1.662 0-3 1.338-3 3v2 3 3h3 4 3v-3-3-2c0-1.662-1.338-3-3-3h-4z"/></g><g id="device-notifier"><rect id="rect23" width="32" height="32" y="-34" opacity="0"/><rect id="rect25" width="32" height="32" y="-34" fill-opacity="0" class="ColorScheme-Text" color="#dedede"/><path id="path29" fill="currentColor" d="m11-9v4h10v-4h-10zm2 1h2v2h-2v-2zm4 0h2v2h-2v-2z" color="#dedede" enable-background="new" filter="url(#filter7554)"/><g fill="#dedede"><path id="rect871" d="m14-32c-3.878 0-7 3.122-7 7v5c0 3.878 3.122 7 7 7h4c3.878 0 7-3.122 7-7v-5c0-3.878-3.122-7-7-7h-4zm-1 2h6c0.554 0 1 0.446 1 1s-0.446 1-1 1h-6c-0.554 0-1-0.446-1-1s0.446-1 1-1z"/><rect id="rect873" width="18" height="13" x="7" y="-24" ry="2"/><rect id="rect881" width="8" height="2" x="12" y="-30" opacity=".5" rx="1" ry="1"/></g></g></svg>