<svg xmlns="http://www.w3.org/2000/svg" id="svg7384" width="22" height="22" enable-background="new" version="1.1"><defs id="defs7386"><style id="current-color-scheme" type="text/css"/></defs><g id="disk-quota"><path id="path15" fill="#dedede" d="m6 2c-1.108 0-2 0.892-2 2v14c0 1.108 0.892 2 2 2h10c1.108 0 2-0.892 2-2v-14c0-1.108-0.892-2-2-2zm0 2h1v2h-1zm2 0h1v2h-1zm2 0h1v2h-1zm2 0h1v2h-1zm2 1h1v1h-1zm-3 2a5 5 0 0 1 5 5 5 5 0 0 1-5 5 5 5 0 0 1-5-5 5 5 0 0 1 5-5zm5 10a1 1 0 0 1 1 1 1 1 0 0 1-1 1 1 1 0 0 1-1-1 1 1 0 0 1 1-1z"/><path id="path17" fill="#dedede" d="m11 7a5 5 0 0 0-5 5 5 5 0 0 0 5 5 5 5 0 0 0 5-5h-5z" opacity=".3"/><path id="path19" d="m0 0h22v22h-22z" opacity="0"/><g id="g23" fill="#dedede"><circle id="circle21" cx="11" cy="12" r="2"/></g></g><g id="disk-quota-low" transform="translate(32)"><path id="path53" fill="#dedede" d="m6 2c-1.108 0-2 0.892-2 2v14c0 1.108 0.892 2 2 2h10c1.108 0 2-0.892 2-2v-14c0-1.108-0.892-2-2-2zm0 2h1v2h-1zm2 0h1v2h-1zm2 0h1v2h-1zm2 0h1v2h-1zm2 1h1v1h-1zm-3 2a5 5 0 0 1 5 5 5 5 0 0 1-5 5 5 5 0 0 1-5-5 5 5 0 0 1 5-5zm5 10a1 1 0 0 1 1 1 1 1 0 0 1-1 1 1 1 0 0 1-1-1 1 1 0 0 1 1-1z"/><path id="path55" fill="#dc6e2e" d="m11 7a5 5 0 0 0-5 5 5 5 0 0 0 5 5 5 5 0 0 0 5-5h-5z"/><path id="path57" d="m0 0h22v22h-22z" opacity="0"/><g id="g61" fill="#dedede"><circle id="circle59" cx="11" cy="12" r="2"/></g></g><g id="disk-quota-high" transform="translate(59)"><path id="path65" fill="#dedede" d="m6 2c-1.108 0-2 0.892-2 2v14c0 1.108 0.892 2 2 2h10c1.108 0 2-0.892 2-2v-14c0-1.108-0.892-2-2-2zm0 2h1v2h-1zm2 0h1v2h-1zm2 0h1v2h-1zm2 0h1v2h-1zm2 1h1v1h-1zm-3 2a5 5 0 0 1 5 5 5 5 0 0 1-5 5 5 5 0 0 1-5-5 5 5 0 0 1 5-5zm5 10a1 1 0 0 1 1 1 1 1 0 0 1-1 1 1 1 0 0 1-1-1 1 1 0 0 1 1-1z"/><path id="path67" fill="#eb5555" d="m11 7a5 5 0 0 0-5 5 5 5 0 0 0 5 5 5 5 0 0 0 5-5h-5z"/><path id="path69" d="m0 0h22v22h-22z" opacity="0"/><g id="g73" fill="#dedede"><circle id="circle71" cx="11" cy="12" r="2"/></g></g><g id="disk-quota-critical" transform="translate(-34)"><path id="path77" fill="#dedede" d="m126 2c-1.108 0-2 0.892-2 2v14c0 1.108 0.892 2 2 2h10c1.108 0 2-0.892 2-2v-14c0-1.108-0.892-2-2-2zm0 2h1v2h-1zm2 0h1v2h-1zm2 0h1v2h-1zm2 0h1v2h-1zm2 1h1v1h-1zm-3 2a5 5 0 0 1 5 5 5 5 0 0 1-5 5 5 5 0 0 1-5-5 5 5 0 0 1 5-5zm5 10a1 1 0 0 1 1 1 1 1 0 0 1-1 1 1 1 0 0 1-1-1 1 1 0 0 1 1-1z"/><path id="path79" fill="#eb5555" d="m131 7a5 5 0 0 0-5 5 5 5 0 0 0 5 5 5 5 0 0 0 5-5h-5z"/><path id="path81" d="m120 0h22v22h-22z" opacity="0"/><g id="g85" fill="#dedede" transform="translate(120)"><circle id="circle83" cx="11" cy="12" r="2"/></g><path id="path24" fill="#dc6e2e" d="m139 11v5h2v-5zm0 6v2h2v-2z"/></g></svg>