<svg xmlns="http://www.w3.org/2000/svg" xmlns:svg="http://www.w3.org/2000/svg" style="enable-background:new" id="svg7384" width="22" height="22" version="1.1"><metadata id="metadata11"/><defs id="defs7386"><style id="current-color-scheme" type="text/css"/></defs><g id="edit-delete"><rect style="opacity:.00100002;fill:currentColor;fill-opacity:1;stroke:none;stroke-width:2;stroke-linecap:round;stroke-linejoin:round;stroke-miterlimit:4;stroke-dasharray:none;stroke-opacity:1" id="rect4138" width="22" height="22" x="0" y="0"/><g id="g6293" transform="translate(-438.00034,25.999981)" style="display:inline;stroke:none;enable-background:new"><rect id="rect4218" width="16" height="16" x="441" y="-23" rx=".144" ry=".151" style="color:#bebebe;display:inline;overflow:visible;visibility:visible;fill:none;stroke:none;stroke-width:1;marker:none"/><path id="path4992" d="m 208,595 c -3.86295,0 -7,3.13704 -7,7 0,3.86295 3.13705,7 7,7 3.86295,0 7,-3.13705 7,-7 0,-3.86296 -3.13705,-7 -7,-7 z m 0,2 c 1.01943,0 1.95898,0.28763 2.75,0.8125 l -6.9375,6.9375 C 203.28763,603.95898 203,603.01943 203,602 c 0,-2.75926 2.24075,-5 5,-5 z m 4.1875,2.25 c 0.52487,0.79102 0.8125,1.73057 0.8125,2.75 0,2.75925 -2.24075,5 -5,5 -1.01943,0 -1.95898,-0.28763 -2.75,-0.8125 z" transform="translate(241.0002,-617)" style="color:#000;font-style:normal;font-variant:normal;font-weight:400;font-stretch:normal;line-height:normal;font-family:Sans;-inkscape-font-specification:Sans;text-indent:0;text-align:start;text-decoration:none;text-decoration-line:none;letter-spacing:normal;word-spacing:normal;text-transform:none;writing-mode:lr-tb;direction:ltr;baseline-shift:baseline;text-anchor:start;display:inline;overflow:visible;visibility:visible;fill:#dedede;fill-opacity:1;stroke:none;stroke-width:2;marker:none;enable-background:accumulate"/></g></g></svg>