<svg xmlns="http://www.w3.org/2000/svg" xmlns:svg="http://www.w3.org/2000/svg" id="svg2817" width="22" height="22" version="1"><metadata id="metadata13"/><defs id="defs12"><style id="current-color-scheme" type="text/css"/></defs><g id="16-16-kate" transform="translate(-527.84441,41.280449)" style="display:inline;enable-background:new"><g id="g5063" transform="translate(465.0006,-557.00672)" style="color:#bebebe;display:inline;visibility:visible;fill:none;stroke:none;stroke-width:1.78124988;marker:none"><rect style="color:#bebebe;display:inline;overflow:visible;visibility:visible;fill:none;stroke:none;stroke-width:1;marker:none;enable-background:new" id="rect5066" width="16" height="16" x="40" y="518"/></g><path style="fill:#dedede;fill-opacity:1;stroke:none" id="path5071" d="m 505.9931,-27.11922 v 3.12 h 3.12 l 7.88,-7.88 -3.12,-3.12 z m 13.76,-7.51 c 0.33,-0.33 0.33,-0.85 0,-1.18 l -1.95,-1.95 c -0.33,-0.33 -0.85,-0.33 -1.18,0 l -1.63,1.64 3.12,3.12 z"/></g><g id="22-22-kate"><rect style="opacity:.00100002;fill:currentColor;fill-opacity:1;stroke:none;stroke-width:1;stroke-linecap:butt;stroke-linejoin:miter;stroke-miterlimit:4;stroke-dasharray:2,1;stroke-dashoffset:0;stroke-opacity:1" id="rect4552" width="22" height="22" x="0" y="0"/><g id="g838" transform="translate(-502.0006,42.00672)" style="display:inline;enable-background:new"><g id="g834" transform="translate(465.0006,-557.00672)" style="color:#bebebe;display:inline;visibility:visible;fill:none;stroke:none;stroke-width:1.78124988;marker:none"><rect style="color:#bebebe;display:inline;overflow:visible;visibility:visible;fill:none;stroke:none;stroke-width:1;marker:none;enable-background:new" id="rect832" width="16" height="16" x="40" y="518"/></g><path style="fill:#dedede;fill-opacity:1;stroke:none" id="path836" d="m 505.9931,-27.11922 v 3.12 h 3.12 l 7.88,-7.88 -3.12,-3.12 z m 13.76,-7.51 c 0.33,-0.33 0.33,-0.85 0,-1.18 l -1.95,-1.95 c -0.33,-0.33 -0.85,-0.33 -1.18,0 l -1.63,1.64 3.12,3.12 z"/></g></g></svg>