<svg xmlns="http://www.w3.org/2000/svg" xmlns:osb="http://www.openswatchbook.org/uri/2009/osb" id="svg7384" width="22" height="22" enable-background="new" version="1.1"><defs id="defs7386"><style id="current-color-scheme" type="text/css">.ColorScheme-Text{color:#dedede}</style></defs><g id="kget"><path id="path826" fill="#dedede" d="m11 2a9 9 0 0 0-9 9 9 9 0 0 0 9 9 9 9 0 0 0 9-9 9 9 0 0 0-9-9zm-2 3h4v7h3l-5 6-5-6h3v-7z"/><path id="rect4139" d="m0.25 0h21.5c0.1385 0 0.25 0.1115 0.25 0.25v21.5c0 0.1385-0.11151 0.25-0.25 0.25h-21.5c-0.1385 0-0.25-0.1115-0.25-0.25v-21.5c0-0.1385 0.11151-0.25 0.25-0.25z" opacity="0"/><path id="path5972" fill="currentColor" d="m9 10v2h-3l5 6 5-6h-3v-2s-1 0.58263-2 0c-1-0.58263-1.4149-0.2447-2 0z" class="ColorScheme-Text" color="#dedede" opacity=".15"/></g></svg>