<svg xmlns="http://www.w3.org/2000/svg" xmlns:osb="http://www.openswatchbook.org/uri/2009/osb" xmlns:svg="http://www.w3.org/2000/svg" style="enable-background:new" id="svg7384" width="22" height="22" version="1.1"><metadata id="metadata12"/><defs id="defs7386"><style id="current-color-scheme" type="text/css"/><linearGradient id="linearGradient5606" osb:paint="solid"><stop style="stop-color:currentColor;stop-opacity:1" id="stop5608" offset="0"/></linearGradient></defs><g id="knotes"><path style="opacity:0;fill:currentColor;fill-opacity:1;fill-rule:nonzero;stroke:none;stroke-width:1;stroke-linecap:round;stroke-linejoin:round;stroke-miterlimit:4;stroke-dasharray:none;stroke-dashoffset:0;stroke-opacity:1" id="rect4148" d="m 0,0 h 22 c 0,0 0,0 0,0 v 22 c 0,0 0,0 0,0 H 0 c 0,0 0,0 0,0 V 0 c 0,0 0,0 0,0 z"/><g style="display:inline;enable-background:new" id="g6545" transform="translate(-702.00018,334.00336)"><rect style="color:#bebebe;display:inline;overflow:visible;visibility:visible;opacity:.51464431;fill:none;stroke:none;stroke-width:3;marker:none;enable-background:accumulate" id="rect35722" width="16" height="16" x="705" y="-331.003"/><path id="path13686" d="m 708.00018,-330.00336 c -2,0 -2,2 -2,2 v 10 c 0,2 2,2 2,2 h 10 c 0,0 2,0 2,-2 v -10 c 0,-2 -2,-2 -2,-2 h -2 z m 1,3 h 8 v 1 h -8 z m 0,3 h 8 v 1 h -8 z m 0,3 h 6 v 1 h -6 z" style="display:inline;fill:#dedede;fill-opacity:1;stroke:none;enable-background:new"/></g></g></svg>