<svg xmlns="http://www.w3.org/2000/svg" xmlns:svg="http://www.w3.org/2000/svg" xmlns:xlink="http://www.w3.org/1999/xlink" id="svg" width="100%" height="100%" version="1.1" viewBox="0 0 22 22"><metadata id="metadata29"/><defs id="defs81"><style id="current-color-scheme" type="text/css"/></defs><g id="kpackagekit-inactive" transform="translate(-27.988424,-0.7756859)"><rect style="opacity:0;fill:#7a0000;fill-opacity:1;stroke:none;stroke-opacity:1" id="rect4210-3" width="22" height="22" x="82.3" y="0"/><g style="display:inline;enable-background:new" id="g8719" transform="translate(-659.70022,233.97226)"><path id="path8675" d="m 761.0002,-223 h -2 c 0,-2.76241 -1.86537,-5.08363 -4.40625,-5.78125 -0.0316,-0.009 -0.0621,-0.023 -0.0937,-0.0312 -0.25518,-0.0655 -0.51414,-0.0934 -0.78125,-0.125 -0.23328,-0.0276 -0.47806,-0.0625 -0.71875,-0.0625 -0.6163,6.4e-4 -1.22888,0.0951 -1.8125,0.28125 v 0.0312 c -0.84159,0.26706 -1.61362,0.69432 -2.25,1.28125 l 1.1875,1.59375 c 0.502,-0.51324 1.1581,-0.84637 1.875,-1.03125 v -0.0312 c 0.38012,-0.0893 0.78962,-0.12172 1.1875,-0.0937 0.1818,0.0128 0.34929,0.0286 0.53125,0.0625 1.86707,0.33781 3.28125,1.94181 3.28125,3.90625 h -2 l 1.24484,1.65979 1.75516,2.34021 3,-4 z m -3.9375,4.40625 -1.1875,-1.59375 c -0.502,0.51324 -1.1581,0.84637 -1.875,1.03125 v 0.0312 c -0.38012,0.0893 -0.78962,0.12172 -1.1875,0.0937 -0.1818,-0.0128 -0.34929,-0.0286 -0.53125,-0.0625 -1.86707,-0.33781 -3.28125,-1.94181 -3.28125,-3.90625 h 2 l -3,-4 -3,4 h 2 c 0,2.76241 1.86537,5.08363 4.40625,5.78125 0.0322,0.009 0.0613,0.0229 0.0937,0.0312 0.25518,0.0655 0.51414,0.0934 0.78125,0.125 0.23328,0.0276 0.47806,0.0625 0.71875,0.0625 0.6163,-6.4e-4 1.22888,-0.0951 1.8125,-0.28125 v -0.0312 c 0.84159,-0.26706 1.61362,-0.69432 2.25,-1.28125 z" style="fill:#dedede;fill-opacity:1;stroke:none"/><rect style="color:#bebebe;display:inline;overflow:visible;visibility:visible;fill:none;stroke:none;stroke-width:1;marker:none" id="rect8710" width="16" height="16" x="-761" y="214.972" transform="scale(-1)"/></g></g><g id="kpackagekit-security" transform="translate(-82.300003)"><rect id="rect860" width="22" height="22" x="82.3" y="0" style="opacity:0;fill:#7a0000;fill-opacity:1;stroke:none;stroke-opacity:1"/><g id="g866" transform="translate(-659.70022,233.97226)" style="display:inline;enable-background:new"><path style="fill:#72d78f;fill-opacity:1;stroke:none" id="path862" d="m 761.0002,-223 h -2 c 0,-2.76241 -1.86537,-5.08363 -4.40625,-5.78125 -0.0316,-0.009 -0.0621,-0.023 -0.0937,-0.0312 -0.25518,-0.0655 -0.51414,-0.0934 -0.78125,-0.125 -0.23328,-0.0276 -0.47806,-0.0625 -0.71875,-0.0625 -0.6163,6.4e-4 -1.22888,0.0951 -1.8125,0.28125 v 0.0312 c -0.84159,0.26706 -1.61362,0.69432 -2.25,1.28125 l 1.1875,1.59375 c 0.502,-0.51324 1.1581,-0.84637 1.875,-1.03125 v -0.0312 c 0.38012,-0.0893 0.78962,-0.12172 1.1875,-0.0937 0.1818,0.0128 0.34929,0.0286 0.53125,0.0625 1.86707,0.33781 3.28125,1.94181 3.28125,3.90625 h -2 l 1.24484,1.65979 1.75516,2.34021 3,-4 z m -3.9375,4.40625 -1.1875,-1.59375 c -0.502,0.51324 -1.1581,0.84637 -1.875,1.03125 v 0.0312 c -0.38012,0.0893 -0.78962,0.12172 -1.1875,0.0937 -0.1818,-0.0128 -0.34929,-0.0286 -0.53125,-0.0625 -1.86707,-0.33781 -3.28125,-1.94181 -3.28125,-3.90625 h 2 l -3,-4 -3,4 h 2 c 0,2.76241 1.86537,5.08363 4.40625,5.78125 0.0322,0.009 0.0613,0.0229 0.0937,0.0312 0.25518,0.0655 0.51414,0.0934 0.78125,0.125 0.23328,0.0276 0.47806,0.0625 0.71875,0.0625 0.6163,-6.4e-4 1.22888,-0.0951 1.8125,-0.28125 v -0.0312 c 0.84159,-0.26706 1.61362,-0.69432 2.25,-1.28125 z"/><rect id="rect864" width="16" height="16" x="-761" y="214.972" transform="scale(-1)" style="color:#bebebe;display:inline;overflow:visible;visibility:visible;fill:none;stroke:none;stroke-width:1;marker:none"/></g></g><g id="kpackagekit-important" transform="translate(-56.611501,0.297853)"><rect style="opacity:0;fill:#7a0000;fill-opacity:1;stroke:none;stroke-opacity:1" id="rect870" width="22" height="22" x="82.3" y="0"/><g style="display:inline;enable-background:new" id="g876" transform="translate(-659.70022,233.97226)"><path id="path872" d="m 761.0002,-223 h -2 c 0,-2.76241 -1.86537,-5.08363 -4.40625,-5.78125 -0.0316,-0.009 -0.0621,-0.023 -0.0937,-0.0312 -0.25518,-0.0655 -0.51414,-0.0934 -0.78125,-0.125 -0.23328,-0.0276 -0.47806,-0.0625 -0.71875,-0.0625 -0.6163,6.4e-4 -1.22888,0.0951 -1.8125,0.28125 v 0.0312 c -0.84159,0.26706 -1.61362,0.69432 -2.25,1.28125 l 1.1875,1.59375 c 0.502,-0.51324 1.1581,-0.84637 1.875,-1.03125 v -0.0312 c 0.38012,-0.0893 0.78962,-0.12172 1.1875,-0.0937 0.1818,0.0128 0.34929,0.0286 0.53125,0.0625 1.86707,0.33781 3.28125,1.94181 3.28125,3.90625 h -2 l 1.24484,1.65979 1.75516,2.34021 3,-4 z m -3.9375,4.40625 -1.1875,-1.59375 c -0.502,0.51324 -1.1581,0.84637 -1.875,1.03125 v 0.0312 c -0.38012,0.0893 -0.78962,0.12172 -1.1875,0.0937 -0.1818,-0.0128 -0.34929,-0.0286 -0.53125,-0.0625 -1.86707,-0.33781 -3.28125,-1.94181 -3.28125,-3.90625 h 2 l -3,-4 -3,4 h 2 c 0,2.76241 1.86537,5.08363 4.40625,5.78125 0.0322,0.009 0.0613,0.0229 0.0937,0.0312 0.25518,0.0655 0.51414,0.0934 0.78125,0.125 0.23328,0.0276 0.47806,0.0625 0.71875,0.0625 0.6163,-6.4e-4 1.22888,-0.0951 1.8125,-0.28125 v -0.0312 c 0.84159,-0.26706 1.61362,-0.69432 2.25,-1.28125 z" style="fill:#5294e2;fill-opacity:1;stroke:none"/><rect style="color:#bebebe;display:inline;overflow:visible;visibility:visible;fill:none;stroke:none;stroke-width:1;marker:none" id="rect874" width="16" height="16" x="-761" y="214.972" transform="scale(-1)"/></g></g><use id="use880" width="100%" height="100%" x="0" y="0" transform="translate(-30.088099,39.213625)" xlink:href="#g878"/><use id="use882" width="100%" height="100%" x="0" y="0" transform="translate(-24.481181,0.18977614)" xlink:href="#use880"/><use id="use886" width="100%" height="100%" x="0" y="0" transform="translate(-30.657428,39.972732)" xlink:href="#use884"/><use id="software-updates-release" width="100%" height="100%" x="0" y="0" transform="translate(-53.745552,-0.06647708)" xlink:href="#software-updates-updates"/><g id="kpackagekit-updates" transform="translate(-111.09358,0.56623764)"><rect id="rect880" width="22" height="22" x="82.3" y="0" style="opacity:0;fill:#7a0000;fill-opacity:1;stroke:none;stroke-opacity:1"/><g id="g886" transform="translate(-659.70022,233.97226)" style="display:inline;enable-background:new"><path style="fill:#5294e2;fill-opacity:1;stroke:none" id="path882" d="m 761.0002,-223 h -2 c 0,-2.76241 -1.86537,-5.08363 -4.40625,-5.78125 -0.0316,-0.009 -0.0621,-0.023 -0.0937,-0.0312 -0.25518,-0.0655 -0.51414,-0.0934 -0.78125,-0.125 -0.23328,-0.0276 -0.47806,-0.0625 -0.71875,-0.0625 -0.6163,6.4e-4 -1.22888,0.0951 -1.8125,0.28125 v 0.0312 c -0.84159,0.26706 -1.61362,0.69432 -2.25,1.28125 l 1.1875,1.59375 c 0.502,-0.51324 1.1581,-0.84637 1.875,-1.03125 v -0.0312 c 0.38012,-0.0893 0.78962,-0.12172 1.1875,-0.0937 0.1818,0.0128 0.34929,0.0286 0.53125,0.0625 1.86707,0.33781 3.28125,1.94181 3.28125,3.90625 h -2 l 1.24484,1.65979 1.75516,2.34021 3,-4 z m -3.9375,4.40625 -1.1875,-1.59375 c -0.502,0.51324 -1.1581,0.84637 -1.875,1.03125 v 0.0312 c -0.38012,0.0893 -0.78962,0.12172 -1.1875,0.0937 -0.1818,-0.0128 -0.34929,-0.0286 -0.53125,-0.0625 -1.86707,-0.33781 -3.28125,-1.94181 -3.28125,-3.90625 h 2 l -3,-4 -3,4 h 2 c 0,2.76241 1.86537,5.08363 4.40625,5.78125 0.0322,0.009 0.0613,0.0229 0.0937,0.0312 0.25518,0.0655 0.51414,0.0934 0.78125,0.125 0.23328,0.0276 0.47806,0.0625 0.71875,0.0625 0.6163,-6.4e-4 1.22888,-0.0951 1.8125,-0.28125 v -0.0312 c 0.84159,-0.26706 1.61362,-0.69432 2.25,-1.28125 z"/><rect id="rect884" width="16" height="16" x="-761" y="214.972" transform="scale(-1)" style="color:#bebebe;display:inline;overflow:visible;visibility:visible;fill:none;stroke:none;stroke-width:1;marker:none"/></g></g></svg>