<svg xmlns="http://www.w3.org/2000/svg" xmlns:osb="http://www.openswatchbook.org/uri/2009/osb" xmlns:svg="http://www.w3.org/2000/svg" id="svg7384" width="22" height="22" version="1.1" style="enable-background:new"><metadata id="metadata27"/><defs id="defs7386"><style id="current-color-scheme" type="text/css">.ColorScheme-Text{color:#dedede}</style><linearGradient id="linearGradient5606" osb:paint="solid"><stop id="stop5608" offset="0" style="stop-color:currentColor;stop-opacity:1"/></linearGradient></defs><g id="16-16-list-remove" transform="translate(-285.00081,5.00334)"><rect id="rect4175" width="16" height="16" x="306" y="-26" style="opacity:0;fill:#39ffff;fill-opacity:1;stroke:none;stroke-opacity:1"/><g id="g4155" transform="translate(306.00095,-26.00332)" style="enable-background:new"><g id="layer12-3" transform="translate(-445.0004,119.00336)" style="display:inline"><path id="path4992" d="m 453.00026,-118.00338 c -3.86295,0 -7,3.13704 -7,7 0,3.86295 3.13705,7 7,7 3.86295,0 7,-3.13705 7,-7 0,-3.86296 -3.13705,-7 -7,-7 z m 0,2 c 1.01943,0 1.95898,0.28763 2.75,0.8125 l -6.9375,6.9375 c -0.52487,-0.79102 -0.8125,-1.73057 -0.8125,-2.75 0,-2.75926 2.24075,-5 5,-5 z m 4.1875,2.25 c 0.52487,0.79102 0.8125,1.73057 0.8125,2.75 0,2.75925 -2.24075,5 -5,5 -1.01943,0 -1.95898,-0.28763 -2.75,-0.8125 l 6.9375,-6.9375 z" class="ColorScheme-Text" style="font-style:normal;font-variant:normal;font-weight:400;fill:currentColor;fill-opacity:1;stroke:none;stroke-width:2;marker:none;enable-background:accumulate"/></g></g></g><g id="16-16-list-add" transform="translate(-285.00081,5.00334)"><rect id="rect4173" width="16" height="16" x="288" y="-26" style="opacity:0;fill:#39ffff;fill-opacity:1;stroke:none;stroke-opacity:1"/><g id="g4169" transform="translate(288.00081,-26.00334)" style="enable-background:new"><g id="layer12-21" transform="translate(-285.00081,-0.99666)" style="display:inline"><path id="rect31992" d="m 292.00081,3.99666 0,4 -4,0 0,2 4,0 0,4 2,0 0,-4 4,0 0,-2 -4,0 0,-4 -2,0 z" class="ColorScheme-Text" style="display:inline;overflow:visible;visibility:visible;opacity:1;fill:currentColor;fill-opacity:1;stroke:none;stroke-width:1;marker:none"/></g></g></g><g id="list-add"><path id="rect4138" d="M 0,0 H 22 V 22 H 0 Z" style="opacity:0;fill:currentColor;fill-opacity:1;fill-rule:nonzero;stroke:none;stroke-width:1;stroke-linecap:round;stroke-linejoin:round;stroke-miterlimit:4;stroke-dasharray:none;stroke-dashoffset:0;stroke-opacity:1"/><g style="display:inline;stroke:none;enable-background:new" id="g6134" transform="translate(-58.000401,-844)"><rect style="color:#bebebe;display:inline;overflow:visible;visibility:visible;fill:none;stroke:none;stroke-width:1;marker:none" id="rect31990" width="16" height="16" x="61" y="847"/><path id="rect31992-3" d="m 68.0004,850 v 4 h -4 v 2 h 4 v 4 h 2 v -4 h 4 v -2 h -4 v -4 z" style="color:#bebebe;display:inline;overflow:visible;visibility:visible;fill:#dedede;fill-opacity:1;stroke:none;stroke-width:1;marker:none"/></g></g><g id="list-remove"><rect id="rect4169" width="22" height="22" x="24.999" y=".003" style="opacity:0;fill:currentColor;fill-opacity:1;stroke:none;stroke-opacity:1"/><g style="display:inline;stroke:none;enable-background:new" id="g6293" transform="translate(-413.00116,26.003321)"><rect style="color:#bebebe;display:inline;overflow:visible;visibility:visible;fill:none;stroke:none;stroke-width:1;marker:none" id="rect4218" width="16" height="16" x="441" y="-23" rx=".144" ry=".151"/><path style="color:#000;font-style:normal;font-variant:normal;font-weight:400;font-stretch:normal;line-height:normal;font-family:Sans;-inkscape-font-specification:Sans;text-indent:0;text-align:start;text-decoration:none;text-decoration-line:none;letter-spacing:normal;word-spacing:normal;text-transform:none;writing-mode:lr-tb;direction:ltr;baseline-shift:baseline;text-anchor:start;display:inline;overflow:visible;visibility:visible;fill:#dedede;fill-opacity:1;stroke:none;stroke-width:2;marker:none;enable-background:accumulate" id="path4992-6" d="m 208,595 c -3.86295,0 -7,3.13704 -7,7 0,3.86295 3.13705,7 7,7 3.86295,0 7,-3.13705 7,-7 0,-3.86296 -3.13705,-7 -7,-7 z m 0,2 c 1.01943,0 1.95898,0.28763 2.75,0.8125 l -6.9375,6.9375 C 203.28763,603.95898 203,603.01943 203,602 c 0,-2.75926 2.24075,-5 5,-5 z m 4.1875,2.25 c 0.52487,0.79102 0.8125,1.73057 0.8125,2.75 0,2.75925 -2.24075,5 -5,5 -1.01943,0 -1.95898,-0.28763 -2.75,-0.8125 z" transform="translate(241.0002,-617)"/></g></g></svg>