<svg xmlns="http://www.w3.org/2000/svg" id="svg67" width="22" height="22" version="1.1" viewBox="0 0 22 22"><defs id="defs3"><style id="current-color-scheme" type="text/css">.ColorScheme-Text{color:#dedede}.ColorScheme-Highlight{color:#5294e2}</style></defs><g><g id="media-record" transform="translate(22,-1030.4)"><rect id="rect5" width="22" height="22" y="1030.4" opacity=".001"/><path id="path7" fill="#f96060" d="m11 1035.4c-3.311 0-6 2.6888-6 6 0 3.311 2.689 6 6 6s6-2.689 6-6c0-3.3112-2.689-6-6-6z" class="ColorScheme-Highlight" color="#5294e2" enable-background="new"/></g><g id="media-playback-stop" transform="translate(44,-1030.4)"><rect id="rect10" width="22" height="22" y="1030.4" opacity=".001"/><path id="path12" fill="#dedede" d="m5 1035.4v12h12v-12z" class="ColorScheme-Text" color="#dedede" enable-background="new"/></g><g id="media-skip-forward" transform="translate(66,-1030.4)"><rect id="rect15" width="22" height="22" y="1030.4" opacity=".001"/><path id="path17" fill="#dedede" d="m19 1037.4v8h-2v-8zm-2 4-7 4v-8zm-7 0-7 4v-8z" class="ColorScheme-Text" color="#dedede" enable-background="new"/></g><g id="media-skip-backward" transform="matrix(-1,0,0,1,110,-1030.4)"><rect id="rect20" width="22" height="22" y="1030.4" opacity=".001"/><path id="path22" fill="#dedede" d="m19 1037.4v8h-2v-8zm-2 4-7 4v-8zm-7 0-7 4v-8z" class="ColorScheme-Text" color="#dedede" enable-background="new"/></g><g id="media-seek-forward" transform="translate(110,-1030.4)"><rect id="rect25" width="22" height="22" y="1030.4" opacity=".001"/><path id="path27" fill="#dedede" d="m11 1037.4 7 4-7 4zm0 4-7 4v-8z" class="ColorScheme-Text" color="#dedede" enable-background="new"/></g><g id="media-seek-backward" transform="matrix(-1,0,0,1,154,-1030.4)"><rect id="rect30" width="22" height="22" y="1030.4" opacity=".001"/><path id="path32" fill="#dedede" d="m11 1037.4 7 4-7 4zm0 4-7 4v-8z" class="ColorScheme-Text" color="#dedede" enable-background="new"/></g><g id="media-eject" transform="translate(-44,-1030.4)"><rect id="rect35" width="22" height="22" y="1030.4" opacity=".001"/><path id="path37" fill="#dedede" d="m11 1036.4-5 5v1h10v-1zm-5 8v2h10v-2z" class="ColorScheme-Text" color="#dedede" display="block"/></g><g id="media-playback-pause" transform="translate(-22,-1030.4)"><rect id="rect40" width="22" height="22" y="1030.4" opacity=".001"/><path id="path42" fill="#dedede" d="m5 1035.4v12h4v-12zm8 0v12h4v-12z" class="ColorScheme-Text" color="#dedede" enable-background="new"/></g><g id="media-playback-start" transform="translate(0,-1030.4)"><rect id="rect45" width="22" height="22" y="1030.4" opacity=".001"/><path id="path47" fill="#dedede" d="m6 1035.4v12l11-6-9.8992-5.3996z" class="ColorScheme-Text" color="#dedede" enable-background="new"/></g><g id="media-playback-paused" class="ColorScheme-Text" color="#dedede" transform="matrix(1.5,0,0,1.5,-4.6412,-1522.6)"><rect id="rect50" width="14.667" height="14.667" x="3.667" y="1034" fill="#ed1515" fill-opacity=".004" opacity=".01"/><path id="path52" fill="#dedede" d="m11.667 1039.4h1.3334v4.0002h-1.3334zm-2.6668 0h1.3334v4.0002h-1.3334zm2.0001-3.3334c-2.9548 0-5.3335 2.3787-5.3335 5.3335s2.3788 5.3335 5.3335 5.3335c2.9548 0 5.3335-2.3787 5.3335-5.3335s-2.3788-5.3335-5.3335-5.3335z" class="ColorScheme-Text" color="#dedede"/></g><g id="media-playback-playing" class="ColorScheme-Text" color="#dedede" transform="matrix(1.5,0,0,1.5,19.358,-1522.6)"><rect id="rect55" width="14.667" height="14.667" x="3.667" y="1034" fill="#ed1515" fill-opacity=".004" opacity=".01"/><path id="path57" fill="#dedede" d="m35.857 31.402c-4.4324 0-8 3.5676-8 8s3.5676 8 8 8 8.002-3.5676 8.002-8-3.5696-8-8.002-8zm-2 5 4 3-4 3z" color="#31363b" transform="matrix(.66668 0 0 .66668 -12.906 1015.1)"/></g><g id="media-playback-stopped" class="ColorScheme-Text" color="#dedede" transform="matrix(1.5,0,0,1.5,43.358,-1522.6)"><rect id="rect60" width="14.667" height="14.667" x="3.667" y="1034" fill="#ed1515" fill-opacity=".004" opacity=".01"/><path id="path62" fill="#dedede" d="m8.9999 1039.4h4.0002v4.0002h-4.0002zm2.0001-3.3334c-2.9548 0-5.3335 2.3787-5.3335 5.3335s2.3788 5.3335 5.3335 5.3335c2.9548 0 5.3335-2.3787 5.3335-5.3335s-2.3788-5.3335-5.3335-5.3335z" class="ColorScheme-Text" color="#dedede"/></g></g></svg>