<svg xmlns="http://www.w3.org/2000/svg" id="svg7384" width="22" height="22" enable-background="new" version="1.1"><defs id="defs7386"><style id="current-color-scheme" type="text/css"/></defs><g id="nepomuk"><rect id="rect4150" width="22" height="22" opacity="0"/><path id="path824" fill="#dedede" d="m9.5 3a6.5 6.5 0 0 0-6.5 6.5 6.5 6.5 0 0 0 6.5 6.5 6.5 6.5 0 0 0 6.5-6.5 6.5 6.5 0 0 0-6.5-6.5zm0 2a4.5 4.5 0 0 1 4.5 4.5 4.5 4.5 0 0 1-4.5 4.5 4.5 4.5 0 0 1-4.5-4.5 4.5 4.5 0 0 1 4.5-4.5z"/><path id="rect829" fill="#dedede" d="m0.04661 18.365c0.554 0 0.95339-0.53281 0.95339 0.021186v7c0 0.554-0.446 1-1 1s-1-0.446-1-1v-7c0-0.554 0.49261-0.02119 1.0466-0.02119z" transform="rotate(-45)"/></g></svg>