<svg xmlns="http://www.w3.org/2000/svg" id="svg" version="1.1" viewBox="0 0 22 22"><defs id="defs3"><style id="current-color-scheme" type="text/css">.ColorScheme-Text{color:#dedede}</style></defs><g id="g9" fill="#dedede"><path id="expander-bottom" d="m-18 23 2-2 2 2z" class="ColorScheme-Text" color="#dedede"/><path id="expander-top" d="m-18 17 2 2 2-2z" class="ColorScheme-Text" color="#dedede"/><path id="expander-right" d="m-13 18-2 2 2 2z" class="ColorScheme-Text" color="#dedede"/><path id="expander-left" d="m-19 18 2 2-2 2z" class="ColorScheme-Text" color="#dedede"/></g><g id="notification-inactive"><path id="path11" fill="#eaeaea" d="m11 2a2 2 0 0 0-2 2 2 2 0 0 0 0.029297 0.33594c-2.3485 0.8128-4.0293 3.0323-4.0293 5.6641v3l-3 4h18l-3-4v-3c0-2.6318-1.6808-4.8513-4.0293-5.6641a2 2 0 0 0 0.029297-0.33594 2 2 0 0 0-2-2z"/><rect id="rect13" width="22" height="22" fill-opacity="0" class="ColorScheme-Text" color="#dedede"/><path id="path15" fill="#eaeaea" d="m8.1738 18a3 3 0 0 0 2.8262 2 3 3 0 0 0 2.8242-2h-5.6504z" opacity=".75"/></g><g id="notification-disabled" transform="translate(0,-26)"><path id="path18" fill="#eaeaea" d="m11 2a2 2 0 0 0-2 2 2 2 0 0 0 0.029297 0.33594c-2.3485 0.8128-4.0293 3.0323-4.0293 5.6641v3l-3 4h18l-3-4v-3c0-2.6318-1.6808-4.8513-4.0293-5.6641a2 2 0 0 0 0.029297-0.33594 2 2 0 0 0-2-2z" opacity=".35"/><rect id="rect20" width="22" height="22" fill-opacity="0" class="ColorScheme-Text" color="#dedede"/><path id="path22" fill="#eaeaea" d="m8.1738 18a3 3 0 0 0 2.8262 2 3 3 0 0 0 2.8242-2z" opacity=".35"/></g><g id="notification-active"><path id="path43" fill="#eaeaea" d="m10 37a2 2 0 0 0-2 2 2 2 0 0 0 0.029297 0.33594c-2.3485 0.8128-4.0293 3.0323-4.0293 5.6641v3l-3 4h18l-3-4v-3c0-0.37956-0.04445-0.74605-0.11133-1.1055a4 4 0 0 1-0.88867 0.10547 4 4 0 0 1-4-4 4 4 0 0 1 0.63281-2.1504 2 2 0 0 0-1.6328-0.84961z"/><rect id="rect45" width="22" height="22" x="-1" y="35" fill-opacity="0" class="ColorScheme-Text" color="#dedede"/><path id="path47" fill="#eaeaea" d="m7.1738 53a3 3 0 0 0 2.8262 2 3 3 0 0 0 2.8242-2z" opacity=".75"/><circle id="circle49" cx="15" cy="40" r="3" fill="#8be9fd"/></g><g id="notification-empty"><rect id="rect52" width="22" height="22" y="-53" fill-opacity="0" class="ColorScheme-Text" color="#dedede"/><path id="path69" fill="#eaeaea" d="m11-51a9 9 0 0 0-9 9 9 9 0 0 0 9 9 9 9 0 0 0 9-9 9 9 0 0 0-0.48633-2.8906 4 4 0 0 1-1.832 0.83203 7 7 0 0 1 0.31836 2.0586 7 7 0 0 1-7 7 7 7 0 0 1-7-7 7 7 0 0 1 7-7 7 7 0 0 1 2.0645 0.31055 4 4 0 0 1 0.82812-1.8223 9 9 0 0 0-2.8926-0.48828z"/><circle id="circle56" cx="17" cy="-48" r="3" fill="#8be9fd"/></g><g id="notification-progress-active"><rect id="rect27" width="22" height="22" x="40" y="-1" fill-opacity="0" class="ColorScheme-Text" color="#dedede"/><path id="path844" fill="#eaeaea" d="m51 1a9 9 0 0 0-9 9 9 9 0 0 0 9 9 9 9 0 0 0 9-9 9 9 0 0 0-9-9zm0 2a7 7 0 0 1 7 7 7 7 0 0 1-7 7 7 7 0 0 1-7-7 7 7 0 0 1 7-7z"/><circle id="path849" cx="51" cy="10" r="6" fill="#8be9fd"/></g><g id="notification-progress-inactive" transform="translate(30)"><rect id="rect859" width="22" height="22" x="40" y="-1" fill-opacity="0" class="ColorScheme-Text" color="#dedede"/><path id="path861" fill="#eaeaea" d="m51 1a9 9 0 0 0-9 9 9 9 0 0 0 9 9 9 9 0 0 0 9-9 9 9 0 0 0-9-9zm0 2a7 7 0 0 1 7 7 7 7 0 0 1-7 7 7 7 0 0 1-7-7 7 7 0 0 1 7-7z"/><circle id="circle863" cx="51" cy="10" r="6" fill="#eaeaea" opacity=".15"/></g></svg>