<svg xmlns="http://www.w3.org/2000/svg" xmlns:osb="http://www.openswatchbook.org/uri/2009/osb" id="svg7384" width="22" height="22" enable-background="new" version="1.1"><defs id="defs7386"><style id="current-color-scheme" type="text/css"/></defs><g id="printer"><g fill="#dedede"><path id="rect822" d="m8 2c-1.108 0-2 0.892-2 2v1h0.27539 9.4492 0.27539v-1c0-1.108-0.892-2-2-2h-6z" opacity=".75"/><rect id="rect832" width="12" height="1" x="5" y="5" ry="0"/><path id="rect830" d="m7 11c-0.554 0-1 0.446-1 1v7c0 0.554 0.446 1 1 1v-8h8v8c0.554 0 1-0.446 1-1v-7c0-0.554-0.446-1-1-1h-8z"/></g><rect id="rect4140" width="22" height="22" x="-.001" y="-.003" opacity="0"/><path id="rect824" fill="#dedede" d="m4 7c-1.108 0-2 0.892-2 2v4c0 1.108 0.892 2 2 2h1v-3c0-1.108 0.892-2 2-2h8c1.108 0 2 0.892 2 2v3h1c1.108 0 2-0.892 2-2v-4c0-1.108-0.892-2-2-2zm14 1a1 1 0 0 1 1 1 1 1 0 0 1-1 1 1 1 0 0 1-1-1 1 1 0 0 1 1-1z"/><rect id="rect847" width="8" height="8" x="7" y="12" fill="#dedede" opacity=".5" ry="0"/></g></svg>