<svg xmlns="http://www.w3.org/2000/svg" xmlns:svg="http://www.w3.org/2000/svg" id="svg" width="100%" height="100%" version="1.1" viewBox="0 0 22 22"><metadata id="metadata16"/><defs id="defs81"><style id="current-color-scheme" type="text/css">.ColorScheme-Text{color:#d3dae3}</style></defs><g id="quassel" transform="translate(-1 -1)"><path id="rect3881" fill="#fff" fill-opacity=".01" stroke="none" d="M1 1h22v22H1z"/><path id="path2999" fill="currentColor" fill-opacity="1" stroke="none" d="M11 3a8 8 0 1 0 0 16 8 8 0 0 0 0-16zm0 1a7 7 0 1 1 0 14 7 7 0 0 1 0-14zm2 7a3 3 0 1 0 0 6 3 3 0 0 0 0-6z" class="ColorScheme-Text" transform="translate(1 1)" style="fill:#dedede;fill-opacity:1"/></g><g id="quassel_inactive" transform="translate(-25 -1)"><path id="rect3777" fill="#fff" fill-opacity=".01" stroke="none" d="M1 1h22v22H1z"/><path id="path3779" fill="currentColor" fill-opacity="1" stroke="none" d="M11 3a8 8 0 1 0 0 16 8 8 0 0 0 0-16zm0 1a7 7 0 1 1 0 14 7 7 0 0 1 0-14zm2 7a3 3 0 1 0 0 6 3 3 0 0 0 0-6z" class="ColorScheme-Text" opacity=".2" transform="translate(1 1)" style="fill:#dedede;fill-opacity:1"/></g><g id="quassel_message" stroke="none" transform="translate(23 -1)"><path id="rect3785" fill="#fff" fill-opacity=".01" d="M1 1h22v22H1z"/><path id="path3787" fill="currentColor" fill-opacity="1" d="M11 3a8 8 0 1 0 0 16 8 8 0 0 0 0-16zm0 1a7 7 0 1 1 0 14 7 7 0 0 1 0-14zm2 7a3 3 0 1 0 0 6 3 3 0 0 0 0-6z" color="#bd93f9" transform="translate(1 1)"/></g></svg>