<svg xmlns="http://www.w3.org/2000/svg" xmlns:svg="http://www.w3.org/2000/svg" style="enable-background:new" id="svg7384" width="22" height="22" version="1.1"><metadata id="metadata13"/><defs id="defs7386"><style id="current-color-scheme" type="text/css"/></defs><g id="touchpad_enabled"><path style="opacity:0;fill:currentColor;fill-opacity:1;fill-rule:nonzero;stroke:none;stroke-width:1;stroke-linecap:round;stroke-linejoin:round;stroke-miterlimit:4;stroke-dasharray:none;stroke-dashoffset:0;stroke-opacity:1" id="rect4148" d="m 0,0 h 22 c 0,0 0,0 0,0 v 22 c 0,0 0,0 0,0 H 0 c 0,0 0,0 0,0 V 0 c 0,0 0,0 0,0 z"/><path id="path5073-3" d="m 4,5.00336 c -1,0 -1,1 -1,1 v 11 c 0,0 0,1 1,1 h 13 c 0,0 1,0 1,-1 v -11 c 0,-1 -1,-1 -1,-1 z m 1,2 h 11 v 6 H 5 Z m 0,7 h 5 v 2 H 5 Z m 6,0 h 5 v 2 h -5 z" style="fill:#dedede;fill-opacity:1;stroke:none"/></g><g id="touchpad_disabled" transform="translate(0,24.423002)"><path id="path838" d="m 0,0 h 22 c 0,0 0,0 0,0 v 22 c 0,0 0,0 0,0 H 0 c 0,0 0,0 0,0 V 0 c 0,0 0,0 0,0 z" style="opacity:0;fill:currentColor;fill-opacity:1;fill-rule:nonzero;stroke:none;stroke-width:1;stroke-linecap:round;stroke-linejoin:round;stroke-miterlimit:4;stroke-dasharray:none;stroke-dashoffset:0;stroke-opacity:1"/><g id="g844" transform="rotate(90,272.0001,213.9999)" style="display:inline;filter:url(#filter7554);enable-background:new"><rect id="rect840" width="16" height="16" x="61" y="467" style="fill:none;stroke:none"/><path id="path842" d="m 185,340 c -1,0 -1,1 -1,1 v 11 c 0,0 0,1 1,1 h 13 c 0,0 1,0 1,-1 v -11 c 0,-1 -1,-1 -1,-1 z m 1,2 h 11 v 6 h -11 z m 0,7 h 5 v 2 h -5 z m 6,0 h 5 v 2 h -5 z" transform="rotate(-90,195.00178,471.99822)" style="fill:#dedede;fill-opacity:1;stroke:none;opacity:.5"/></g></g></svg>