<svg xmlns="http://www.w3.org/2000/svg" xmlns:svg="http://www.w3.org/2000/svg" id="svg4143" width="22" height="22" version="1.1" viewBox="0 0 22 22"><metadata id="metadata23"/><defs id="defs4157"><style id="current-color-scheme" type="text/css"/></defs><g id="update-none"><rect id="rect4136" width="22" height="22" x="-.001" y="-.004" style="opacity:.00100002;fill:#000;fill-opacity:1;fill-rule:nonzero;stroke:none;stroke-width:2;stroke-linecap:round;stroke-linejoin:round;stroke-miterlimit:4;stroke-dasharray:none;stroke-opacity:1"/><g style="display:inline;enable-background:new" id="g6716" class="success" transform="translate(-702.0011,233.99644)"><path style="color:#000;display:inline;overflow:visible;visibility:visible;fill:#50fa7b;fill-opacity:1;fill-rule:nonzero;stroke:none;stroke-width:.84323651;marker:none;enable-background:accumulate" id="path6718" d="m 471.87695,267.00195 c -1.34529,0.0265 -2.69525,0.44583 -3.88281,1.27735 -3.16683,2.21743 -3.93227,6.55973 -1.71484,9.72656 2.21745,3.16683 6.55777,3.93228 9.72461,1.71484 2.27736,-1.59463 3.31198,-4.28216 2.89062,-6.85351 -0.0982,-0.6008 -0.285,-1.15996 -0.52734,-1.70117 l -6.35157,7.25781 -0.6875,0.8125 -0.78124,-0.75 -3,-3 c -0.37639,-0.37633 -0.37636,-1.06114 0,-1.4375 0.37636,-0.37635 1.06116,-0.37638 1.4375,0 l 2.25,2.25 6.02343,-6.89258 c -1.07681,-1.24128 -2.50923,-2.03034 -4.04297,-2.30078 -0.44106,-0.0778 -0.88946,-0.11236 -1.33789,-0.10352 z" class="success" transform="translate(241.0002,-497)"/><rect style="color:#bebebe;display:inline;overflow:visible;visibility:visible;fill:none;stroke:none;stroke-width:1;marker:none;enable-background:new" id="rect6721" width="16" height="16" x="705" y="-231" rx=".144" ry=".151"/></g></g><g id="update-low"><rect id="rect4725" width="22" height="22" x="24" y="-.002" style="opacity:.00100002;fill:#000;fill-opacity:1;fill-rule:nonzero;stroke:none;stroke-width:2;stroke-linecap:round;stroke-linejoin:round;stroke-miterlimit:4;stroke-dasharray:none;stroke-opacity:1"/><g id="g6772" transform="translate(-338.0004,294.00114)" style="display:inline;enable-background:new"><path style="fill:#c197ff;fill-opacity:1;stroke:none" id="path6775" d="M 92,352.71875 C 91.262011,353.44699 90.55523,354.27546 89.808594,355 H 87 v 2.80859 c -0.724647,0.74666 -1.552919,1.4534 -2.28125,2.19141 0.728487,0.73824 1.556505,1.47349 2.28125,2.22266 V 365 h 2.806641 c 0.747355,0.72494 1.454731,1.55231 2.193359,2.28125 0.73886,-0.7291 1.474793,-1.55622 2.224609,-2.28125 H 97 v -2.77734 C 97.724783,361.47353 98.552724,360.73821 99.28125,360 98.552957,359.26195 97.724609,358.55529 97,357.80859 V 355 H 94.222656 C 93.473528,354.27522 92.738205,353.44728 92,352.71875 Z m 0,3.43359 2.5625,3.84375 H 94.5 93 V 364 h -2 v -4.00391 h -1.5 -0.0625 c 1.16612,-1.70241 2.24519,-3.35582 2.5625,-3.84375 z" transform="translate(281.0002,-643)"/><rect id="rect6777" width="16" height="16" x="365" y="-291.003" style="color:#bebebe;display:inline;overflow:visible;visibility:visible;fill:none;stroke:none;stroke-width:1;marker:none"/></g></g><g id="update-medium" transform="translate(0,28.717156)"><rect style="opacity:.00100002;fill:#000;fill-opacity:1;fill-rule:nonzero;stroke:none;stroke-width:2;stroke-linecap:round;stroke-linejoin:round;stroke-miterlimit:4;stroke-dasharray:none;stroke-opacity:1" id="rect890" width="22" height="22" x="24" y="-.002"/><g style="display:inline;enable-background:new" id="g896" transform="translate(-338.0004,294.00114)"><path id="path892" d="M 92,352.71875 C 91.262011,353.44699 90.55523,354.27546 89.808594,355 H 87 v 2.80859 c -0.724647,0.74666 -1.552919,1.4534 -2.28125,2.19141 0.728487,0.73824 1.556505,1.47349 2.28125,2.22266 V 365 h 2.806641 c 0.747355,0.72494 1.454731,1.55231 2.193359,2.28125 0.73886,-0.7291 1.474793,-1.55622 2.224609,-2.28125 H 97 v -2.77734 C 97.724783,361.47353 98.552724,360.73821 99.28125,360 98.552957,359.26195 97.724609,358.55529 97,357.80859 V 355 H 94.222656 C 93.473528,354.27522 92.738205,353.44728 92,352.71875 Z m 0,3.43359 2.5625,3.84375 H 94.5 93 V 364 h -2 v -4.00391 h -1.5 -0.0625 c 1.16612,-1.70241 2.24519,-3.35582 2.5625,-3.84375 z" transform="translate(281.0002,-643)" style="fill:#bd93f9;fill-opacity:1;stroke:none"/><rect style="color:#bebebe;display:inline;overflow:visible;visibility:visible;fill:none;stroke:none;stroke-width:1;marker:none" id="rect894" width="16" height="16" x="365" y="-291.003"/></g></g><g id="update-high" transform="translate(0,56.360773)"><rect id="rect900" width="22" height="22" x="24" y="-.002" style="opacity:.00100002;fill:#000;fill-opacity:1;fill-rule:nonzero;stroke:none;stroke-width:2;stroke-linecap:round;stroke-linejoin:round;stroke-miterlimit:4;stroke-dasharray:none;stroke-opacity:1"/><g id="g906" transform="translate(-338.0004,294.00114)" style="display:inline;enable-background:new"><path style="fill:#7c60a3;fill-opacity:1;stroke:none" id="path902" d="M 92,352.71875 C 91.262011,353.44699 90.55523,354.27546 89.808594,355 H 87 v 2.80859 c -0.724647,0.74666 -1.552919,1.4534 -2.28125,2.19141 0.728487,0.73824 1.556505,1.47349 2.28125,2.22266 V 365 h 2.806641 c 0.747355,0.72494 1.454731,1.55231 2.193359,2.28125 0.73886,-0.7291 1.474793,-1.55622 2.224609,-2.28125 H 97 v -2.77734 C 97.724783,361.47353 98.552724,360.73821 99.28125,360 98.552957,359.26195 97.724609,358.55529 97,357.80859 V 355 H 94.222656 C 93.473528,354.27522 92.738205,353.44728 92,352.71875 Z m 0,3.43359 2.5625,3.84375 H 94.5 93 V 364 h -2 v -4.00391 h -1.5 -0.0625 c 1.16612,-1.70241 2.24519,-3.35582 2.5625,-3.84375 z" transform="translate(281.0002,-643)"/><rect id="rect904" width="16" height="16" x="365" y="-291.003" style="color:#bebebe;display:inline;overflow:visible;visibility:visible;fill:none;stroke:none;stroke-width:1;marker:none"/></g></g></svg>