<svg xmlns="http://www.w3.org/2000/svg" xmlns:osb="http://www.openswatchbook.org/uri/2009/osb" xmlns:svg="http://www.w3.org/2000/svg" id="svg" width="100%" height="100%" version="1.1" viewBox="0 0 22 22"><metadata id="metadata12"/><defs id="defs81"><style id="current-color-scheme" type="text/css"/><linearGradient id="linearGradient5606" osb:paint="solid"><stop style="stop-color:currentColor;stop-opacity:1" id="stop5608" offset="0"/></linearGradient></defs><g id="video-display-brightness"><rect style="opacity:0;fill:#00000f;fill-opacity:.00392157;stroke:none" id="rect3074" width="22" height="22" x="0" y="0"/><g id="g7791" transform="translate(-362.0004,294.00336)" style="display:inline;enable-background:new"><path style="fill:#dedede;fill-opacity:1;stroke:none" id="path7793" d="m 132,232.71875 c -0.73799,0.72824 -1.44477,1.55677 -2.19141,2.28125 H 127 v 2.80859 c -0.72459,0.74666 -1.55292,1.4534 -2.28125,2.19141 0.72849,0.73824 1.55656,1.47349 2.28125,2.22266 V 245 h 2.80664 c 0.74736,0.725 1.45473,1.55231 2.19336,2.28125 0.73886,-0.7291 1.47479,-1.55615 2.22461,-2.28125 H 137 v -2.77734 c 0.72474,-0.74912 1.5527,-1.48443 2.28125,-2.22266 -0.72829,-0.73805 -1.5567,-1.44467 -2.28125,-2.19141 V 235 h -2.77734 C 133.47353,234.27527 132.73821,233.44728 132,232.71875 Z M 132,236 c 2.20914,0 4,1.79086 4,4 0,2.20914 -1.79086,4 -4,4 -2.20914,0 -4,-1.79086 -4,-4 0,-2.20914 1.79086,-4 4,-4 z m 0,1 c -1.65685,0 -3,1.34315 -3,3 0,1.65685 1.34315,3 3,3 z" transform="translate(241.0002,-523)"/><rect style="color:#bebebe;display:inline;overflow:visible;visibility:visible;fill:none;stroke:none;stroke-width:1;marker:none" id="rect7795" width="16" height="16" x="365" y="-291.003"/></g></g></svg>